<?xml version="1.0" encoding="UTF-8" standalone="no"?>
<!-- Created by diasvg.py -->
<svg width="15.404cm" height="16.904cm" viewBox="0.278 0.179 15.682 17.083"
 xmlns="http://www.w3.org/2000/svg"
 xmlns:xlink="http://www.w3.org/1999/xlink">
<path stroke="none" fill="#FFFFFF" stroke-width="0.050" d="M 9.455,0.684 L 9.454,0.660 L 9.450,0.637 L 9.441,0.613 L 9.429,0.590 L 9.414,0.566 L 9.396,0.543 L 9.374,0.520 L 9.350,0.499 L 9.322,0.477 L 9.292,0.455 L 9.259,0.435 L 9.222,0.415 L 9.182,0.396 L 9.141,0.377 L 9.097,0.360 L 9.050,0.343 L 9.000,0.326 L 8.950,0.311 L 8.897,0.297 L 8.841,0.284 L 8.784,0.272 L 8.725,0.261 L 8.666,0.251 L 8.605,0.242 L 8.541,0.234 L 8.478,0.227 L 8.414,0.222 L 8.348,0.218 L 8.283,0.215 L 8.217,0.213 L 8.152,0.212 L 8.152,0.212 L 8.085,0.213 L 8.019,0.215 L 7.953,0.218 L 7.888,0.222 L 7.824,0.227 L 7.761,0.234 L 7.698,0.242 L 7.637,0.251 L 7.577,0.261 L 7.519,0.272 L 7.462,0.284 L 7.406,0.297 L 7.353,0.311 L 7.301,0.326 L 7.252,0.343 L 7.206,0.360 L 7.162,0.377 L 7.119,0.396 L 7.081,0.415 L 7.044,0.435 L 7.011,0.455 L 6.980,0.477 L 6.953,0.499 L 6.928,0.520 L 6.906,0.543 L 6.888,0.566 L 6.874,0.590 L 6.862,0.613 L 6.854,0.637 L 6.848,0.660 L 6.846,0.684 L 6.846,0.684 L 6.848,0.708 L 6.854,0.733 L 6.862,0.756 L 6.874,0.780 L 6.888,0.803 L 6.906,0.825 L 6.928,0.848 L 6.953,0.871 L 6.980,0.892 L 7.011,0.913 L 7.044,0.934 L 7.081,0.954 L 7.119,0.973 L 7.162,0.992 L 7.206,1.010 L 7.252,1.026 L 7.301,1.042 L 7.353,1.057 L 7.406,1.072 L 7.462,1.085 L 7.519,1.097 L 7.577,1.108 L 7.637,1.119 L 7.698,1.127 L 7.761,1.135 L 7.824,1.141 L 7.888,1.146 L 7.953,1.151 L 8.019,1.154 L 8.085,1.156 L 8.152,1.156 L 8.152,1.156 L 8.217,1.156 L 8.283,1.154 L 8.348,1.151 L 8.414,1.146 L 8.478,1.141 L 8.541,1.135 L 8.605,1.127 L 8.666,1.119 L 8.725,1.108 L 8.784,1.097 L 8.841,1.085 L 8.897,1.072 L 8.950,1.057 L 9.000,1.042 L 9.050,1.026 L 9.097,1.010 L 9.141,0.992 L 9.182,0.973 L 9.222,0.954 L 9.259,0.934 L 9.292,0.913 L 9.322,0.892 L 9.350,0.871 L 9.374,0.848 L 9.396,0.825 L 9.414,0.803 L 9.429,0.780 L 9.441,0.756 L 9.450,0.733 L 9.454,0.708 L 9.455,0.684 "/>
<path stroke="none" fill="#FFFFFF" stroke-width="0.050" d="M 7.410,0.932 L 7.409,0.908 L 7.405,0.884 L 7.400,0.861 L 7.390,0.837 L 7.379,0.814 L 7.365,0.791 L 7.349,0.768 L 7.329,0.746 L 7.309,0.725 L 7.285,0.703 L 7.259,0.683 L 7.231,0.663 L 7.202,0.644 L 7.170,0.625 L 7.135,0.607 L 7.100,0.590 L 7.062,0.574 L 7.024,0.559 L 6.981,0.545 L 6.939,0.532 L 6.896,0.519 L 6.852,0.509 L 6.805,0.499 L 6.758,0.489 L 6.710,0.482 L 6.662,0.475 L 6.612,0.470 L 6.562,0.466 L 6.513,0.462 L 6.461,0.461 L 6.410,0.460 L 6.410,0.460 L 6.361,0.461 L 6.310,0.462 L 6.260,0.466 L 6.209,0.470 L 6.160,0.475 L 6.111,0.482 L 6.063,0.489 L 6.016,0.499 L 5.970,0.509 L 5.926,0.519 L 5.882,0.532 L 5.840,0.545 L 5.799,0.559 L 5.759,0.574 L 5.722,0.590 L 5.686,0.607 L 5.653,0.625 L 5.621,0.644 L 5.590,0.663 L 5.562,0.683 L 5.537,0.703 L 5.513,0.725 L 5.493,0.746 L 5.473,0.768 L 5.457,0.791 L 5.443,0.814 L 5.432,0.837 L 5.422,0.861 L 5.416,0.884 L 5.412,0.908 L 5.412,0.932 L 5.412,0.932 L 5.412,0.956 L 5.416,0.980 L 5.422,1.004 L 5.432,1.027 L 5.443,1.051 L 5.457,1.073 L 5.473,1.096 L 5.493,1.119 L 5.513,1.140 L 5.537,1.161 L 5.562,1.182 L 5.590,1.202 L 5.621,1.221 L 5.653,1.239 L 5.686,1.257 L 5.722,1.274 L 5.759,1.290 L 5.799,1.305 L 5.840,1.320 L 5.882,1.333 L 5.926,1.345 L 5.970,1.356 L 6.016,1.365 L 6.063,1.375 L 6.111,1.383 L 6.160,1.389 L 6.209,1.395 L 6.260,1.398 L 6.310,1.401 L 6.361,1.403 L 6.410,1.404 L 6.410,1.404 L 6.461,1.403 L 6.513,1.401 L 6.562,1.398 L 6.612,1.395 L 6.662,1.389 L 6.710,1.383 L 6.758,1.375 L 6.805,1.365 L 6.852,1.356 L 6.896,1.345 L 6.939,1.333 L 6.981,1.320 L 7.024,1.305 L 7.062,1.290 L 7.100,1.274 L 7.135,1.257 L 7.170,1.239 L 7.202,1.221 L 7.231,1.202 L 7.259,1.182 L 7.285,1.161 L 7.309,1.140 L 7.329,1.119 L 7.349,1.096 L 7.365,1.073 L 7.379,1.051 L 7.390,1.027 L 7.400,1.004 L 7.405,0.980 L 7.409,0.956 L 7.410,0.932 "/>
<path stroke="none" fill="#FFFFFF" stroke-width="0.050" d="M 6.150,1.413 L 6.149,1.394 L 6.147,1.375 L 6.142,1.355 L 6.136,1.336 L 6.129,1.317 L 6.120,1.298 L 6.108,1.280 L 6.096,1.261 L 6.081,1.244 L 6.065,1.226 L 6.048,1.210 L 6.030,1.193 L 6.010,1.177 L 5.988,1.163 L 5.965,1.148 L 5.941,1.135 L 5.915,1.121 L 5.889,1.109 L 5.862,1.098 L 5.833,1.086 L 5.804,1.077 L 5.773,1.068 L 5.743,1.059 L 5.710,1.052 L 5.678,1.046 L 5.645,1.041 L 5.613,1.036 L 5.578,1.033 L 5.545,1.030 L 5.511,1.029 L 5.476,1.028 L 5.476,1.028 L 5.442,1.029 L 5.408,1.030 L 5.374,1.033 L 5.341,1.036 L 5.308,1.041 L 5.275,1.046 L 5.242,1.052 L 5.211,1.059 L 5.180,1.068 L 5.150,1.077 L 5.120,1.086 L 5.092,1.098 L 5.064,1.109 L 5.038,1.121 L 5.012,1.135 L 4.988,1.148 L 4.966,1.163 L 4.944,1.177 L 4.923,1.193 L 4.905,1.210 L 4.887,1.226 L 4.872,1.244 L 4.858,1.261 L 4.844,1.280 L 4.834,1.298 L 4.824,1.317 L 4.817,1.336 L 4.811,1.355 L 4.806,1.375 L 4.803,1.394 L 4.803,1.413 L 4.803,1.413 L 4.803,1.433 L 4.806,1.453 L 4.811,1.471 L 4.817,1.491 L 4.824,1.510 L 4.834,1.529 L 4.844,1.547 L 4.858,1.565 L 4.872,1.583 L 4.887,1.600 L 4.905,1.617 L 4.923,1.633 L 4.944,1.649 L 4.966,1.664 L 4.988,1.678 L 5.012,1.693 L 5.038,1.706 L 5.064,1.718 L 5.092,1.729 L 5.120,1.740 L 5.150,1.750 L 5.180,1.759 L 5.211,1.767 L 5.242,1.775 L 5.275,1.781 L 5.308,1.786 L 5.341,1.791 L 5.374,1.794 L 5.408,1.796 L 5.442,1.798 L 5.476,1.799 L 5.476,1.799 L 5.511,1.798 L 5.545,1.796 L 5.578,1.794 L 5.613,1.791 L 5.645,1.786 L 5.678,1.781 L 5.710,1.775 L 5.743,1.767 L 5.773,1.759 L 5.804,1.750 L 5.833,1.740 L 5.862,1.729 L 5.889,1.718 L 5.915,1.706 L 5.941,1.693 L 5.965,1.678 L 5.988,1.664 L 6.010,1.649 L 6.030,1.633 L 6.048,1.617 L 6.065,1.600 L 6.081,1.583 L 6.096,1.565 L 6.108,1.547 L 6.120,1.529 L 6.129,1.510 L 6.136,1.491 L 6.142,1.471 L 6.147,1.453 L 6.149,1.433 L 6.150,1.413 "/>
<path stroke="none" fill="#FFFFFF" stroke-width="0.050" d="M 7.238,1.784 L 7.236,1.763 L 7.232,1.742 L 7.226,1.721 L 7.216,1.700 L 7.205,1.680 L 7.191,1.660 L 7.174,1.640 L 7.155,1.620 L 7.133,1.601 L 7.110,1.582 L 7.085,1.564 L 7.056,1.547 L 7.025,1.529 L 6.992,1.513 L 6.959,1.497 L 6.922,1.482 L 6.884,1.469 L 6.844,1.455 L 6.803,1.443 L 6.760,1.431 L 6.715,1.420 L 6.669,1.411 L 6.623,1.401 L 6.576,1.393 L 6.527,1.387 L 6.477,1.381 L 6.428,1.376 L 6.377,1.372 L 6.326,1.370 L 6.274,1.368 L 6.223,1.368 L 6.223,1.368 L 6.172,1.368 L 6.120,1.370 L 6.069,1.372 L 6.018,1.376 L 5.969,1.381 L 5.919,1.387 L 5.870,1.393 L 5.823,1.401 L 5.777,1.411 L 5.731,1.420 L 5.686,1.431 L 5.643,1.443 L 5.602,1.455 L 5.561,1.469 L 5.524,1.482 L 5.487,1.497 L 5.453,1.513 L 5.421,1.529 L 5.390,1.547 L 5.362,1.564 L 5.336,1.582 L 5.312,1.601 L 5.290,1.620 L 5.271,1.640 L 5.255,1.660 L 5.241,1.680 L 5.229,1.700 L 5.221,1.721 L 5.214,1.742 L 5.210,1.763 L 5.209,1.784 L 5.209,1.784 L 5.210,1.806 L 5.214,1.827 L 5.221,1.848 L 5.229,1.869 L 5.241,1.889 L 5.255,1.909 L 5.271,1.929 L 5.290,1.950 L 5.312,1.968 L 5.336,1.987 L 5.362,2.005 L 5.390,2.023 L 5.421,2.040 L 5.453,2.057 L 5.487,2.072 L 5.524,2.087 L 5.561,2.101 L 5.602,2.114 L 5.643,2.127 L 5.686,2.139 L 5.731,2.149 L 5.777,2.159 L 5.823,2.168 L 5.870,2.176 L 5.919,2.183 L 5.969,2.188 L 6.018,2.193 L 6.069,2.197 L 6.120,2.200 L 6.172,2.202 L 6.223,2.202 L 6.223,2.202 L 6.274,2.202 L 6.326,2.200 L 6.377,2.197 L 6.428,2.193 L 6.477,2.188 L 6.527,2.183 L 6.576,2.176 L 6.623,2.168 L 6.669,2.159 L 6.715,2.149 L 6.760,2.139 L 6.803,2.127 L 6.844,2.114 L 6.884,2.101 L 6.922,2.087 L 6.959,2.072 L 6.992,2.057 L 7.025,2.040 L 7.056,2.023 L 7.085,2.005 L 7.110,1.987 L 7.133,1.968 L 7.155,1.950 L 7.174,1.929 L 7.191,1.909 L 7.205,1.889 L 7.216,1.869 L 7.226,1.848 L 7.232,1.827 L 7.236,1.806 L 7.238,1.784 "/>
<path stroke="none" fill="#FFFFFF" stroke-width="0.050" d="M 9.673,2.000 L 9.670,1.975 L 9.665,1.950 L 9.655,1.925 L 9.641,1.900 L 9.624,1.876 L 9.603,1.852 L 9.578,1.828 L 9.550,1.805 L 9.518,1.781 L 9.482,1.759 L 9.443,1.738 L 9.401,1.717 L 9.356,1.697 L 9.307,1.678 L 9.255,1.659 L 9.202,1.641 L 9.145,1.625 L 9.085,1.609 L 9.024,1.594 L 8.959,1.580 L 8.893,1.567 L 8.825,1.555 L 8.756,1.545 L 8.684,1.536 L 8.611,1.528 L 8.537,1.521 L 8.463,1.515 L 8.387,1.510 L 8.311,1.508 L 8.235,1.505 L 8.157,1.505 L 8.157,1.505 L 8.082,1.505 L 8.005,1.508 L 7.929,1.510 L 7.853,1.515 L 7.778,1.521 L 7.705,1.528 L 7.632,1.536 L 7.560,1.545 L 7.491,1.555 L 7.423,1.567 L 7.357,1.580 L 7.292,1.594 L 7.231,1.609 L 7.172,1.625 L 7.115,1.641 L 7.061,1.659 L 7.009,1.678 L 6.960,1.697 L 6.915,1.717 L 6.872,1.738 L 6.833,1.759 L 6.798,1.781 L 6.767,1.805 L 6.738,1.828 L 6.713,1.852 L 6.692,1.876 L 6.675,1.900 L 6.661,1.925 L 6.651,1.950 L 6.645,1.975 L 6.643,2.000 L 6.643,2.000 L 6.645,2.025 L 6.651,2.050 L 6.661,2.075 L 6.675,2.100 L 6.692,2.124 L 6.713,2.148 L 6.738,2.172 L 6.767,2.195 L 6.798,2.218 L 6.833,2.240 L 6.872,2.262 L 6.915,2.282 L 6.960,2.303 L 7.009,2.323 L 7.061,2.341 L 7.115,2.359 L 7.172,2.376 L 7.231,2.392 L 7.292,2.406 L 7.357,2.420 L 7.423,2.433 L 7.491,2.444 L 7.560,2.455 L 7.632,2.464 L 7.705,2.473 L 7.778,2.479 L 7.853,2.484 L 7.929,2.489 L 8.005,2.492 L 8.082,2.495 L 8.157,2.495 L 8.157,2.495 L 8.235,2.495 L 8.311,2.492 L 8.387,2.489 L 8.463,2.484 L 8.537,2.479 L 8.611,2.473 L 8.684,2.464 L 8.756,2.455 L 8.825,2.444 L 8.893,2.433 L 8.959,2.420 L 9.024,2.406 L 9.085,2.392 L 9.145,2.376 L 9.202,2.359 L 9.255,2.341 L 9.307,2.323 L 9.356,2.303 L 9.401,2.282 L 9.443,2.262 L 9.482,2.240 L 9.518,2.218 L 9.550,2.195 L 9.578,2.172 L 9.603,2.148 L 9.624,2.124 L 9.641,2.100 L 9.655,2.075 L 9.665,2.050 L 9.670,2.025 L 9.673,2.000 "/>
<path stroke="none" fill="#FFFFFF" stroke-width="0.050" d="M 10.513,0.859 L 10.513,0.840 L 10.509,0.821 L 10.503,0.802 L 10.493,0.784 L 10.483,0.765 L 10.469,0.747 L 10.453,0.729 L 10.435,0.712 L 10.415,0.695 L 10.391,0.678 L 10.367,0.663 L 10.339,0.647 L 10.310,0.632 L 10.279,0.617 L 10.246,0.603 L 10.212,0.590 L 10.175,0.577 L 10.137,0.565 L 10.097,0.554 L 10.056,0.543 L 10.014,0.534 L 9.970,0.525 L 9.925,0.517 L 9.880,0.510 L 9.833,0.504 L 9.786,0.499 L 9.738,0.495 L 9.689,0.491 L 9.640,0.489 L 9.592,0.488 L 9.542,0.488 L 9.542,0.488 L 9.493,0.488 L 9.444,0.489 L 9.394,0.491 L 9.347,0.495 L 9.299,0.499 L 9.251,0.504 L 9.206,0.510 L 9.159,0.517 L 9.114,0.525 L 9.071,0.534 L 9.028,0.543 L 8.988,0.554 L 8.947,0.565 L 8.910,0.577 L 8.873,0.590 L 8.838,0.603 L 8.805,0.617 L 8.774,0.632 L 8.745,0.647 L 8.718,0.663 L 8.693,0.678 L 8.671,0.695 L 8.650,0.712 L 8.631,0.729 L 8.616,0.747 L 8.602,0.765 L 8.590,0.784 L 8.582,0.802 L 8.575,0.821 L 8.572,0.840 L 8.571,0.859 L 8.571,0.859 L 8.572,0.877 L 8.575,0.896 L 8.582,0.915 L 8.590,0.933 L 8.602,0.952 L 8.616,0.970 L 8.631,0.988 L 8.650,1.005 L 8.671,1.023 L 8.693,1.038 L 8.718,1.055 L 8.745,1.071 L 8.774,1.086 L 8.805,1.101 L 8.838,1.114 L 8.873,1.128 L 8.910,1.140 L 8.947,1.152 L 8.988,1.164 L 9.028,1.174 L 9.071,1.184 L 9.114,1.192 L 9.159,1.200 L 9.206,1.207 L 9.251,1.213 L 9.299,1.218 L 9.347,1.222 L 9.394,1.226 L 9.444,1.228 L 9.493,1.229 L 9.542,1.229 L 9.542,1.229 L 9.592,1.229 L 9.640,1.228 L 9.689,1.226 L 9.738,1.222 L 9.786,1.218 L 9.833,1.213 L 9.880,1.207 L 9.925,1.200 L 9.970,1.192 L 10.014,1.184 L 10.056,1.174 L 10.097,1.164 L 10.137,1.152 L 10.175,1.140 L 10.212,1.128 L 10.246,1.114 L 10.279,1.101 L 10.310,1.086 L 10.339,1.071 L 10.367,1.055 L 10.391,1.038 L 10.415,1.023 L 10.435,1.005 L 10.453,0.988 L 10.469,0.970 L 10.483,0.952 L 10.493,0.933 L 10.503,0.915 L 10.509,0.896 L 10.513,0.877 L 10.513,0.859 "/>
<path stroke="none" fill="#FFFFFF" stroke-width="0.050" d="M 10.788,1.335 L 10.788,1.317 L 10.785,1.298 L 10.777,1.279 L 10.769,1.261 L 10.759,1.242 L 10.744,1.224 L 10.729,1.206 L 10.711,1.189 L 10.691,1.172 L 10.668,1.156 L 10.642,1.139 L 10.617,1.124 L 10.587,1.108 L 10.557,1.093 L 10.524,1.080 L 10.489,1.067 L 10.453,1.054 L 10.415,1.042 L 10.376,1.031 L 10.335,1.020 L 10.293,1.011 L 10.249,1.002 L 10.205,0.994 L 10.160,0.988 L 10.114,0.981 L 10.067,0.976 L 10.019,0.972 L 9.972,0.968 L 9.923,0.966 L 9.875,0.965 L 9.826,0.965 L 9.826,0.965 L 9.776,0.965 L 9.727,0.966 L 9.680,0.968 L 9.632,0.972 L 9.584,0.976 L 9.537,0.981 L 9.490,0.988 L 9.446,0.994 L 9.401,1.002 L 9.357,1.011 L 9.316,1.020 L 9.276,1.031 L 9.235,1.042 L 9.198,1.054 L 9.162,1.067 L 9.126,1.080 L 9.094,1.093 L 9.064,1.108 L 9.035,1.124 L 9.008,1.139 L 8.984,1.156 L 8.960,1.172 L 8.939,1.189 L 8.922,1.206 L 8.906,1.224 L 8.893,1.242 L 8.882,1.261 L 8.873,1.279 L 8.866,1.298 L 8.863,1.317 L 8.862,1.335 L 8.862,1.335 L 8.863,1.354 L 8.866,1.373 L 8.873,1.391 L 8.882,1.410 L 8.893,1.429 L 8.906,1.447 L 8.922,1.464 L 8.939,1.481 L 8.960,1.499 L 8.984,1.516 L 9.008,1.532 L 9.035,1.547 L 9.064,1.562 L 9.094,1.577 L 9.126,1.591 L 9.162,1.604 L 9.198,1.617 L 9.235,1.628 L 9.276,1.640 L 9.316,1.650 L 9.357,1.660 L 9.401,1.668 L 9.446,1.676 L 9.490,1.683 L 9.537,1.689 L 9.584,1.694 L 9.632,1.699 L 9.680,1.702 L 9.727,1.705 L 9.776,1.706 L 9.826,1.706 L 9.826,1.706 L 9.875,1.706 L 9.923,1.705 L 9.972,1.702 L 10.019,1.699 L 10.067,1.694 L 10.114,1.689 L 10.160,1.683 L 10.205,1.676 L 10.249,1.668 L 10.293,1.660 L 10.335,1.650 L 10.376,1.640 L 10.415,1.628 L 10.453,1.617 L 10.489,1.604 L 10.524,1.591 L 10.557,1.577 L 10.587,1.562 L 10.617,1.547 L 10.642,1.532 L 10.668,1.516 L 10.691,1.499 L 10.711,1.481 L 10.729,1.464 L 10.744,1.447 L 10.759,1.429 L 10.769,1.410 L 10.777,1.391 L 10.785,1.373 L 10.788,1.354 L 10.788,1.335 "/>
<path stroke="none" fill="#FFFFFF" stroke-width="0.050" d="M 10.601,1.730 L 10.599,1.699 L 10.596,1.668 L 10.590,1.638 L 10.581,1.607 L 10.570,1.577 L 10.557,1.547 L 10.541,1.518 L 10.522,1.489 L 10.504,1.461 L 10.480,1.434 L 10.456,1.407 L 10.429,1.382 L 10.400,1.357 L 10.371,1.333 L 10.338,1.310 L 10.302,1.288 L 10.267,1.267 L 10.230,1.247 L 10.191,1.229 L 10.151,1.213 L 10.108,1.197 L 10.066,1.183 L 10.022,1.170 L 9.977,1.158 L 9.930,1.148 L 9.884,1.140 L 9.836,1.133 L 9.789,1.127 L 9.741,1.124 L 9.693,1.121 L 9.644,1.120 L 9.644,1.120 L 9.596,1.121 L 9.547,1.124 L 9.499,1.127 L 9.452,1.133 L 9.404,1.140 L 9.357,1.148 L 9.312,1.158 L 9.267,1.170 L 9.222,1.183 L 9.180,1.197 L 9.137,1.213 L 9.097,1.229 L 9.058,1.247 L 9.021,1.267 L 8.985,1.288 L 8.951,1.310 L 8.918,1.333 L 8.887,1.357 L 8.858,1.382 L 8.832,1.407 L 8.808,1.434 L 8.784,1.461 L 8.765,1.489 L 8.747,1.518 L 8.732,1.547 L 8.718,1.577 L 8.707,1.607 L 8.699,1.638 L 8.692,1.668 L 8.688,1.699 L 8.687,1.730 L 8.687,1.730 L 8.688,1.761 L 8.692,1.792 L 8.699,1.822 L 8.707,1.852 L 8.718,1.882 L 8.732,1.912 L 8.747,1.942 L 8.765,1.970 L 8.784,1.998 L 8.808,2.025 L 8.832,2.053 L 8.858,2.078 L 8.887,2.103 L 8.918,2.127 L 8.951,2.149 L 8.985,2.172 L 9.021,2.192 L 9.058,2.212 L 9.097,2.230 L 9.137,2.247 L 9.180,2.262 L 9.222,2.277 L 9.267,2.290 L 9.312,2.302 L 9.357,2.311 L 9.404,2.320 L 9.452,2.327 L 9.499,2.332 L 9.547,2.336 L 9.596,2.338 L 9.644,2.340 L 9.644,2.340 L 9.693,2.338 L 9.741,2.336 L 9.789,2.332 L 9.836,2.327 L 9.884,2.320 L 9.930,2.311 L 9.977,2.302 L 10.022,2.290 L 10.066,2.277 L 10.108,2.262 L 10.151,2.247 L 10.191,2.230 L 10.230,2.212 L 10.267,2.192 L 10.302,2.172 L 10.338,2.149 L 10.371,2.127 L 10.400,2.103 L 10.429,2.078 L 10.456,2.053 L 10.480,2.025 L 10.504,1.998 L 10.522,1.970 L 10.541,1.942 L 10.557,1.912 L 10.570,1.882 L 10.581,1.852 L 10.590,1.822 L 10.596,1.792 L 10.599,1.761 L 10.601,1.730 "/>
<path stroke="none" fill="#FFFFFF" stroke-width="0.050" d="M 9.774,1.363 L 9.772,1.332 L 9.765,1.301 L 9.751,1.270 L 9.734,1.240 L 9.712,1.210 L 9.685,1.180 L 9.653,1.151 L 9.616,1.122 L 9.576,1.094 L 9.531,1.067 L 9.479,1.040 L 9.426,1.015 L 9.368,0.990 L 9.306,0.965 L 9.239,0.942 L 9.170,0.921 L 9.097,0.900 L 9.021,0.881 L 8.942,0.862 L 8.859,0.845 L 8.774,0.830 L 8.687,0.815 L 8.598,0.802 L 8.506,0.791 L 8.413,0.781 L 8.318,0.772 L 8.222,0.765 L 8.126,0.760 L 8.029,0.756 L 7.930,0.754 L 7.832,0.753 L 7.832,0.753 L 7.734,0.754 L 7.636,0.756 L 7.538,0.760 L 7.441,0.765 L 7.345,0.772 L 7.251,0.781 L 7.158,0.791 L 7.066,0.802 L 6.976,0.815 L 6.890,0.830 L 6.805,0.845 L 6.722,0.862 L 6.643,0.881 L 6.567,0.900 L 6.493,0.921 L 6.424,0.942 L 6.358,0.965 L 6.296,0.990 L 6.237,1.015 L 6.183,1.040 L 6.134,1.067 L 6.088,1.094 L 6.047,1.122 L 6.010,1.151 L 5.978,1.180 L 5.951,1.210 L 5.929,1.240 L 5.911,1.270 L 5.899,1.301 L 5.892,1.332 L 5.889,1.363 L 5.889,1.363 L 5.892,1.393 L 5.899,1.424 L 5.911,1.455 L 5.929,1.485 L 5.951,1.516 L 5.978,1.545 L 6.010,1.574 L 6.047,1.603 L 6.088,1.631 L 6.134,1.659 L 6.183,1.685 L 6.237,1.711 L 6.296,1.736 L 6.358,1.759 L 6.424,1.783 L 6.493,1.805 L 6.567,1.826 L 6.643,1.844 L 6.722,1.864 L 6.805,1.880 L 6.890,1.895 L 6.976,1.910 L 7.066,1.923 L 7.158,1.934 L 7.251,1.945 L 7.345,1.952 L 7.441,1.960 L 7.538,1.965 L 7.636,1.969 L 7.734,1.972 L 7.832,1.972 L 7.832,1.972 L 7.930,1.972 L 8.029,1.969 L 8.126,1.965 L 8.222,1.960 L 8.318,1.952 L 8.413,1.945 L 8.506,1.934 L 8.598,1.923 L 8.687,1.910 L 8.774,1.895 L 8.859,1.880 L 8.942,1.864 L 9.021,1.844 L 9.097,1.826 L 9.170,1.805 L 9.239,1.783 L 9.306,1.759 L 9.368,1.736 L 9.426,1.711 L 9.479,1.685 L 9.531,1.659 L 9.576,1.631 L 9.616,1.603 L 9.653,1.574 L 9.685,1.545 L 9.712,1.516 L 9.734,1.485 L 9.751,1.455 L 9.765,1.424 L 9.772,1.393 L 9.774,1.363 "/>
<path stroke="none" fill="#FFFFFF" stroke-width="0.050" d="M 8.165,0.680 L 9.452,0.575 L 9.435,0.552 L 9.416,0.529 L 9.393,0.506 L 9.367,0.484 L 9.338,0.462 L 9.306,0.441 L 9.271,0.421 L 9.233,0.401 L 9.193,0.381 L 9.150,0.363 L 9.104,0.345 L 9.056,0.329 L 9.006,0.313 L 8.954,0.298 L 8.899,0.285 L 8.842,0.272 L 8.784,0.259 L 8.725,0.249 L 8.663,0.239 L 8.601,0.230 L 8.537,0.223 L 8.473,0.217 L 8.407,0.212 L 8.342,0.208 L 8.276,0.206 L 8.209,0.204 L 8.143,0.204 L 8.075,0.204 L 8.009,0.207 L 7.944,0.210 L 7.878,0.215 L 7.813,0.222 L 7.750,0.228 L 7.686,0.236 L 7.625,0.246 L 7.564,0.256 L 7.506,0.267 L 7.449,0.280 L 7.394,0.293 L 7.340,0.308 L 7.290,0.324 L 7.242,0.340 L 7.194,0.358 L 7.151,0.376 L 7.109,0.395 L 7.070,0.415 L 7.035,0.435 L 7.003,0.456 L 6.972,0.477 L 6.945,0.499 L 6.921,0.522 L 6.901,0.545 L 6.884,0.568 L 6.870,0.592 L 8.165,0.680 "/>
<path stroke="#6C8F93" fill="none" stroke-width="0.050"  d="M 9.451,0.574 L 9.435,0.551 L 9.416,0.528 L 9.392,0.505 L 9.366,0.483 L 9.337,0.461 L 9.305,0.441 L 9.270,0.420 L 9.232,0.400 L 9.191,0.381 L 9.149,0.363 L 9.102,0.345 L 9.055,0.328 L 9.004,0.312 L 8.952,0.298 L 8.898,0.283 L 8.841,0.271 L 8.784,0.259 L 8.724,0.248 L 8.662,0.238 L 8.601,0.230 L 8.537,0.223 L 8.472,0.217 L 8.407,0.212 L 8.341,0.208 L 8.274,0.206 L 8.209,0.204 L 8.141,0.204 L 8.075,0.204 L 8.010,0.207 L 7.943,0.210 L 7.878,0.215 L 7.813,0.221 L 7.750,0.228 L 7.686,0.236 L 7.625,0.246 L 7.565,0.256 L 7.507,0.267 L 7.450,0.280 L 7.394,0.293 L 7.342,0.308 L 7.291,0.324 L 7.243,0.340 L 7.196,0.357 L 7.151,0.375 L 7.110,0.394 L 7.072,0.414 L 7.036,0.434 L 7.003,0.455 L 6.974,0.477 L 6.946,0.499 L 6.922,0.521 L 6.901,0.544 L 6.884,0.567 L 6.870,0.590 "/>
<path stroke="none" fill="#FFFFFF" stroke-width="0.050" d="M 6.418,0.927 L 7.066,0.562 L 7.027,0.548 L 6.985,0.534 L 6.943,0.520 L 6.898,0.509 L 6.852,0.498 L 6.806,0.488 L 6.758,0.479 L 6.710,0.472 L 6.661,0.465 L 6.611,0.460 L 6.560,0.456 L 6.510,0.453 L 6.458,0.451 L 6.408,0.451 L 6.357,0.451 L 6.306,0.454 L 6.256,0.457 L 6.205,0.462 L 6.156,0.467 L 6.107,0.475 L 6.059,0.483 L 6.012,0.491 L 5.966,0.501 L 5.921,0.513 L 5.877,0.525 L 5.835,0.539 L 5.794,0.554 L 5.755,0.569 L 5.718,0.585 L 5.682,0.603 L 5.648,0.621 L 5.615,0.639 L 5.586,0.660 L 5.558,0.679 L 5.534,0.700 L 5.510,0.722 L 5.489,0.744 L 5.471,0.766 L 5.454,0.789 L 5.441,0.812 L 5.430,0.836 L 5.422,0.860 L 5.415,0.884 L 5.412,0.908 L 5.412,0.932 L 5.412,0.956 L 5.417,0.980 L 5.424,1.004 L 6.418,0.927 "/>
<path stroke="#6C8F93" fill="none" stroke-width="0.050"  d="M 7.063,0.561 L 7.023,0.546 L 6.981,0.532 L 6.939,0.519 L 6.894,0.507 L 6.848,0.496 L 6.802,0.487 L 6.754,0.478 L 6.706,0.471 L 6.657,0.465 L 6.607,0.459 L 6.556,0.455 L 6.506,0.453 L 6.454,0.451 L 6.404,0.451 L 6.353,0.452 L 6.303,0.454 L 6.251,0.457 L 6.201,0.462 L 6.152,0.468 L 6.103,0.475 L 6.055,0.483 L 6.009,0.493 L 5.963,0.502 L 5.918,0.514 L 5.874,0.527 L 5.832,0.540 L 5.791,0.554 L 5.752,0.569 L 5.716,0.587 L 5.680,0.604 L 5.646,0.622 L 5.615,0.640 L 5.585,0.660 L 5.558,0.680 L 5.532,0.702 L 5.509,0.723 L 5.487,0.745 L 5.471,0.767 L 5.454,0.791 L 5.440,0.814 L 5.430,0.837 L 5.422,0.861 L 5.415,0.885 L 5.412,0.908 L 5.412,0.933 L 5.413,0.957 L 5.417,0.981 L 5.425,1.005 "/>
<path stroke="none" fill="#FFFFFF" stroke-width="0.050" d="M 6.237,1.780 L 5.195,1.767 L 5.195,1.789 L 5.197,1.810 L 5.201,1.832 L 5.209,1.853 L 5.219,1.874 L 5.232,1.895 L 5.247,1.916 L 5.266,1.937 L 5.286,1.957 L 5.308,1.976 L 5.334,1.995 L 5.361,2.014 L 5.391,2.032 L 5.422,2.049 L 5.456,2.066 L 5.493,2.081 L 5.529,2.096 L 5.569,2.111 L 5.610,2.124 L 5.653,2.136 L 5.698,2.148 L 5.743,2.159 L 5.789,2.169 L 5.837,2.178 L 5.887,2.186 L 5.937,2.192 L 5.987,2.198 L 6.038,2.203 L 6.090,2.206 L 6.142,2.209 L 6.195,2.210 L 6.247,2.210 L 6.300,2.209 L 6.351,2.208 L 6.403,2.205 L 6.456,2.201 L 6.507,2.196 L 6.556,2.189 L 6.606,2.183 L 6.655,2.174 L 6.702,2.165 L 6.748,2.155 L 6.793,2.144 L 6.837,2.132 L 6.880,2.119 L 6.920,2.105 L 6.237,1.780 "/>
<path stroke="#6C8F93" fill="none" stroke-width="0.050"  d="M 5.195,1.767 L 5.193,1.789 L 5.197,1.810 L 5.201,1.831 L 5.209,1.853 L 5.219,1.874 L 5.233,1.895 L 5.247,1.916 L 5.266,1.937 L 5.286,1.956 L 5.308,1.976 L 5.333,1.995 L 5.360,2.013 L 5.389,2.031 L 5.422,2.049 L 5.454,2.064 L 5.489,2.081 L 5.528,2.096 L 5.567,2.110 L 5.608,2.124 L 5.651,2.136 L 5.694,2.148 L 5.740,2.158 L 5.787,2.169 L 5.835,2.177 L 5.884,2.185 L 5.933,2.192 L 5.983,2.198 L 6.035,2.202 L 6.086,2.206 L 6.138,2.208 L 6.190,2.210 L 6.244,2.210 L 6.295,2.210 L 6.347,2.208 L 6.399,2.205 L 6.451,2.202 L 6.501,2.196 L 6.552,2.191 L 6.602,2.183 L 6.650,2.175 L 6.698,2.166 L 6.744,2.156 L 6.789,2.145 L 6.833,2.134 L 6.876,2.121 L 6.915,2.107 "/>
<path stroke="none" fill="#FFFFFF" stroke-width="0.050" d="M 9.557,0.850 L 10.476,0.970 L 10.490,0.952 L 10.503,0.934 L 10.513,0.916 L 10.520,0.897 L 10.525,0.879 L 10.528,0.859 L 10.528,0.841 L 10.525,0.822 L 10.520,0.804 L 10.513,0.785 L 10.503,0.766 L 10.490,0.748 L 10.476,0.730 L 10.459,0.712 L 10.439,0.695 L 10.418,0.678 L 10.394,0.661 L 10.367,0.645 L 10.339,0.630 L 10.310,0.615 L 10.277,0.601 L 10.243,0.587 L 10.208,0.574 L 10.169,0.562 L 10.131,0.551 L 10.091,0.540 L 10.049,0.530 L 10.006,0.520 L 9.961,0.512 L 9.916,0.505 L 9.869,0.499 L 9.823,0.493 L 9.774,0.488 L 9.726,0.485 L 9.677,0.481 L 9.628,0.480 L 9.579,0.479 L 9.531,0.479 L 9.481,0.480 L 9.432,0.482 L 9.383,0.485 L 9.335,0.489 L 9.287,0.493 L 9.240,0.499 L 9.557,0.850 "/>
<path stroke="#6C8F93" fill="none" stroke-width="0.050"  d="M 10.385,1.038 L 10.474,0.971 L 10.489,0.953 L 10.501,0.935 L 10.513,0.917 L 10.520,0.898 L 10.525,0.879 L 10.528,0.861 L 10.528,0.842 L 10.525,0.823 L 10.521,0.804 L 10.513,0.785 L 10.504,0.767 L 10.491,0.749 L 10.477,0.731 L 10.460,0.713 L 10.440,0.696 L 10.419,0.679 L 10.395,0.663 L 10.369,0.647 L 10.341,0.631 L 10.310,0.616 L 10.279,0.602 L 10.245,0.588 L 10.209,0.575 L 10.172,0.562 L 10.133,0.551 L 10.092,0.540 L 10.051,0.530 L 10.008,0.521 L 9.964,0.513 L 9.919,0.506 L 9.872,0.499 L 9.826,0.493 L 9.778,0.488 L 9.730,0.485 L 9.681,0.482 L 9.632,0.480 L 9.583,0.479 L 9.533,0.479 L 9.484,0.480 L 9.435,0.482 L 9.386,0.485 L 9.338,0.488 L 9.291,0.493 L 9.243,0.499 "/>
<path stroke="none" fill="#FFFFFF" stroke-width="0.050" d="M 9.686,1.340 L 10.720,1.492 L 10.740,1.472 L 10.759,1.453 L 10.774,1.432 L 10.785,1.411 L 10.795,1.391 L 10.800,1.369 L 10.802,1.348 L 10.801,1.327 L 10.798,1.305 L 10.792,1.284 L 10.782,1.263 L 10.770,1.243 L 10.755,1.223 L 10.736,1.202 L 10.715,1.183 L 10.690,1.164 L 10.663,1.145 L 10.633,1.126 L 10.601,1.109 L 9.686,1.340 "/>
<path stroke="#6C8F93" fill="none" stroke-width="0.050"  d="M 10.584,1.562 L 10.720,1.494 L 10.740,1.474 L 10.759,1.453 L 10.773,1.433 L 10.785,1.411 L 10.795,1.391 L 10.801,1.370 L 10.803,1.348 L 10.803,1.327 L 10.798,1.305 L 10.792,1.284 L 10.783,1.263 L 10.770,1.242 L 10.753,1.222 L 10.736,1.201 L 10.714,1.182 L 10.689,1.162 L 10.660,1.143 L 10.631,1.125 L 10.598,1.107 L 10.385,1.038 "/>
<path stroke="none" fill="#FFFFFF" stroke-width="0.050" d="M 9.644,1.743 L 9.317,2.323 L 9.365,2.332 L 9.413,2.340 L 9.463,2.346 L 9.513,2.351 L 9.563,2.355 L 9.613,2.356 L 9.662,2.357 L 9.713,2.355 L 9.762,2.353 L 9.812,2.348 L 9.861,2.341 L 9.911,2.334 L 9.958,2.325 L 10.006,2.314 L 10.051,2.302 L 10.097,2.288 L 10.140,2.273 L 10.184,2.256 L 10.225,2.238 L 10.265,2.219 L 10.302,2.199 L 10.339,2.178 L 10.374,2.155 L 10.407,2.131 L 10.437,2.106 L 10.467,2.081 L 10.493,2.054 L 10.517,2.027 L 10.539,1.999 L 10.559,1.970 L 10.577,1.941 L 10.591,1.912 L 10.604,1.881 L 10.614,1.850 L 10.622,1.819 L 10.626,1.788 L 10.629,1.757 L 10.629,1.726 L 10.626,1.694 L 10.621,1.663 L 10.613,1.633 L 10.602,1.602 L 10.590,1.572 L 9.644,1.743 "/>
<path stroke="#6C8F93" fill="none" stroke-width="0.050"  d="M 9.320,2.323 L 9.368,2.332 L 9.417,2.341 L 9.466,2.347 L 9.516,2.352 L 9.565,2.355 L 9.616,2.357 L 9.666,2.358 L 9.715,2.355 L 9.766,2.353 L 9.816,2.348 L 9.864,2.341 L 9.912,2.333 L 9.961,2.324 L 10.009,2.313 L 10.054,2.301 L 10.099,2.287 L 10.143,2.272 L 10.186,2.256 L 10.227,2.238 L 10.267,2.218 L 10.305,2.198 L 10.341,2.177 L 10.375,2.154 L 10.408,2.130 L 10.439,2.105 L 10.468,2.080 L 10.493,2.053 L 10.518,2.025 L 10.540,1.998 L 10.560,1.969 L 10.578,1.939 L 10.592,1.909 L 10.604,1.879 L 10.614,1.849 L 10.622,1.818 L 10.626,1.787 L 10.629,1.756 L 10.629,1.724 L 10.626,1.693 L 10.620,1.662 L 10.613,1.630 L 10.602,1.600 L 10.589,1.570 "/>
<path stroke="none" fill="#FFFFFF" stroke-width="0.050" d="M 5.513,1.413 L 5.463,1.020 L 5.426,1.023 L 5.391,1.025 L 5.356,1.030 L 5.321,1.034 L 5.286,1.040 L 5.252,1.047 L 5.219,1.055 L 5.186,1.064 L 5.155,1.073 L 5.123,1.083 L 5.094,1.096 L 5.066,1.107 L 5.038,1.121 L 5.012,1.135 L 4.986,1.149 L 4.963,1.164 L 4.941,1.180 L 4.921,1.197 L 4.901,1.213 L 4.883,1.231 L 4.868,1.250 L 4.854,1.268 L 4.840,1.286 L 4.830,1.305 L 4.822,1.325 L 4.814,1.344 L 4.809,1.364 L 4.805,1.385 L 4.803,1.404 L 4.803,1.424 L 4.805,1.445 L 4.809,1.464 L 4.814,1.484 L 4.822,1.504 L 4.831,1.523 L 4.842,1.542 L 4.855,1.561 L 4.869,1.580 L 4.885,1.597 L 4.903,1.615 L 4.923,1.632 L 4.943,1.648 L 4.966,1.664 L 4.990,1.680 L 5.014,1.694 L 5.040,1.707 L 5.069,1.720 L 5.097,1.733 L 5.127,1.744 L 5.158,1.754 L 5.189,1.764 L 5.513,1.413 "/>
<path stroke="#6C8F93" fill="none" stroke-width="0.050"  d="M 5.464,1.020 L 5.428,1.023 L 5.393,1.025 L 5.358,1.029 L 5.323,1.034 L 5.290,1.039 L 5.256,1.046 L 5.223,1.054 L 5.191,1.062 L 5.160,1.072 L 5.130,1.082 L 5.099,1.093 L 5.071,1.105 L 5.044,1.117 L 5.018,1.131 L 4.994,1.145 L 4.970,1.159 L 4.947,1.175 L 4.927,1.192 L 4.907,1.208 L 4.890,1.224 L 4.874,1.242 L 4.859,1.260 L 4.846,1.278 L 4.835,1.297 L 4.824,1.316 L 4.817,1.335 L 4.810,1.355 L 4.806,1.374 L 4.803,1.394 L 4.803,1.414 L 4.803,1.433 L 4.807,1.453 L 4.811,1.473 L 4.817,1.492 L 4.825,1.511 L 4.835,1.530 L 4.846,1.549 L 4.859,1.567 L 4.874,1.585 L 4.890,1.603 L 4.909,1.620 L 4.927,1.636 L 4.948,1.653 L 4.970,1.668 L 4.994,1.683 L 5.019,1.697 L 5.045,1.710 L 5.073,1.723 L 5.101,1.734 L 5.130,1.745 L 5.160,1.756 L 5.193,1.766 "/>
<path stroke="none" fill="#FFFFFF" stroke-width="0.050" d="M 8.144,2.046 L 6.665,2.091 L 6.675,2.114 L 6.687,2.136 L 6.704,2.159 L 6.724,2.182 L 6.748,2.204 L 6.776,2.225 L 6.807,2.246 L 6.841,2.266 L 6.879,2.286 L 6.920,2.306 L 6.964,2.324 L 7.011,2.342 L 7.061,2.359 L 7.113,2.376 L 7.169,2.391 L 7.226,2.406 L 7.286,2.419 L 7.348,2.432 L 7.412,2.444 L 7.478,2.455 L 7.546,2.465 L 7.616,2.474 L 7.686,2.481 L 7.757,2.488 L 7.830,2.494 L 7.903,2.498 L 7.978,2.501 L 8.051,2.503 L 8.127,2.504 L 8.201,2.504 L 8.276,2.502 L 8.350,2.499 L 8.424,2.496 L 8.497,2.491 L 8.569,2.484 L 8.640,2.478 L 8.709,2.469 L 8.778,2.460 L 8.845,2.449 L 8.910,2.439 L 8.973,2.426 L 9.034,2.413 L 9.093,2.398 L 9.149,2.383 L 9.202,2.367 L 9.254,2.350 L 9.302,2.332 L 9.348,2.315 L 9.389,2.295 L 9.429,2.276 L 9.465,2.255 L 9.498,2.235 L 9.527,2.213 L 9.551,2.192 L 8.144,2.046 "/>
<path stroke="#6C8F93" fill="none" stroke-width="0.050"  d="M 6.665,2.092 L 6.675,2.114 L 6.688,2.137 L 6.704,2.160 L 6.726,2.182 L 6.748,2.204 L 6.776,2.225 L 6.808,2.246 L 6.841,2.267 L 6.880,2.286 L 6.920,2.306 L 6.964,2.324 L 7.011,2.342 L 7.061,2.359 L 7.113,2.376 L 7.169,2.391 L 7.227,2.406 L 7.285,2.419 L 7.348,2.432 L 7.411,2.444 L 7.477,2.455 L 7.544,2.465 L 7.614,2.474 L 7.684,2.481 L 7.756,2.487 L 7.828,2.494 L 7.901,2.497 L 7.975,2.501 L 8.050,2.502 L 8.124,2.504 L 8.199,2.504 L 8.274,2.502 L 8.348,2.499 L 8.421,2.496 L 8.494,2.491 L 8.566,2.484 L 8.638,2.478 L 8.706,2.470 L 8.775,2.460 L 8.842,2.450 L 8.906,2.439 L 8.970,2.426 L 9.031,2.413 L 9.089,2.398 L 9.146,2.384 L 9.200,2.367 L 9.251,2.351 L 9.300,2.333 L 9.344,2.315 L 9.388,2.296 L 9.426,2.277 L 9.462,2.256 L 9.494,2.236 L 9.524,2.214 L 9.550,2.193 "/>
<text x="8.022" y="1.480"  fill="#000000" text-anchor="middle" font-size="0.40" font-family="sans" font-style="normal" font-weight="400">
Réseau téléphonique public</text>
<rect x="1.303" y="7.204" width="13.354" height="9.854" fill="#FFFFFF" stroke="none" stroke-width="0"/>
<path stroke="none" fill="#FFFFFF" d ="M 1.303,7.204 A 1.000,1.000 0 0,0 0.303,8.204 "/>
<path stroke="none" fill="#FFFFFF" d ="M 15.657,8.204 A 1.000,1.000 0 0,0 14.657,7.204 "/>
<rect x="0.303" y="8.204" width="15.354" height="7.854" fill="#FFFFFF" stroke="none" stroke-width="0"/>
<path stroke="none" fill="#FFFFFF" d ="M 0.303,16.058 A 1.000,1.000 0 0,0 1.303,17.058 "/>
<path stroke="none" fill="#FFFFFF" d ="M 14.657,17.058 A 1.000,1.000 0 0,0 15.657,16.058 "/>
<line x1="1.303" y1="7.204" x2="14.657" y2="7.204" stroke="#000000" stroke-width="0.050"  stroke-linejoin="round"/>
<line x1="1.303" y1="17.058" x2="14.657" y2="17.058" stroke="#000000" stroke-width="0.050"  stroke-linejoin="round"/>
<path stroke="#000000" fill="none" stroke-width="0.050"  stroke-linejoin="round" d ="M 1.303,7.204 A 1.000,1.000 0 0,0 0.303,8.204 "/>
<path stroke="#000000" fill="none" stroke-width="0.050"  stroke-linejoin="round" d ="M 15.657,8.204 A 1.000,1.000 0 0,0 14.657,7.204 "/>
<line x1="0.303" y1="8.204" x2="0.303" y2="16.058" stroke="#000000" stroke-width="0.050"  stroke-linejoin="round"/>
<line x1="15.657" y1="8.204" x2="15.657" y2="16.058" stroke="#000000" stroke-width="0.050"  stroke-linejoin="round"/>
<path stroke="#000000" fill="none" stroke-width="0.050"  stroke-linejoin="round" d ="M 0.303,16.058 A 1.000,1.000 0 0,0 1.303,17.058 "/>
<path stroke="#000000" fill="none" stroke-width="0.050"  stroke-linejoin="round" d ="M 14.657,17.058 A 1.000,1.000 0 0,0 15.657,16.058 "/>
<text x="15.364" y="7.804"  fill="#000000" text-anchor="end" font-size="0.40" font-family="sans" font-style="normal" font-weight="400">
LinuQ</text>
<rect x="5.803" y="8.704" width="4.500" height="1.500" fill="#FFFFFF" stroke="none" stroke-width="0"/>
<rect x="5.803" y="8.704" width="4.500" height="1.500" fill="none" stroke="#FFA500" stroke-width="0.050" />
<text x="8.053" y="9.701"  fill="#FFA500" text-anchor="middle" font-size="0.89" font-family="sans" font-style="normal" font-weight="400">
Passerelle</text>
<path stroke="#000000" fill="none" stroke-width="0.050"  d="M 12.470,14.704 C 12.637,14.704 13.303,14.787 13.470,14.954 C 13.637,15.121 13.637,15.371 13.470,15.454 C 13.303,15.537 12.970,15.287 12.970,15.204 C 12.970,15.121 13.137,15.121 13.053,15.037 C 12.970,14.954 12.970,15.037 12.887,15.037 C 12.803,15.037 12.887,15.037 12.887,15.121 C 12.887,15.204 12.887,15.371 12.970,15.371 C 13.053,15.371 13.053,15.371 13.053,15.454 C 13.053,15.537 13.220,15.954 13.220,16.121 C 13.220,16.287 13.303,16.454 13.137,16.454 C 12.970,16.454 11.970,16.454 11.803,16.454 C 11.637,16.454 11.720,16.287 11.720,16.121 C 11.720,15.954 11.887,15.537 11.887,15.454 C 11.887,15.371 11.887,15.371 11.970,15.371 C 12.053,15.371 12.053,15.204 12.053,15.121 C 12.053,15.037 12.137,15.037 12.053,15.037 C 11.970,15.037 11.970,14.954 11.887,15.037 C 11.803,15.121 11.970,15.121 11.970,15.204 C 11.970,15.287 11.637,15.537 11.470,15.454 C 11.303,15.371 11.303,15.121 11.470,14.954 C 11.637,14.787 12.303,14.704 12.470,14.704 "/>
<ellipse cx="12.470" cy="15.471" rx="0.350" ry="0.350" fill="none" stroke="#000000"  stroke-width="0.050" /><ellipse cx="12.653" cy="15.287" rx="0.050" ry="0.050" fill="none" stroke="#000000"  stroke-width="0.050" /><ellipse cx="12.537" cy="15.221" rx="0.050" ry="0.050" fill="none" stroke="#000000"  stroke-width="0.050" /><ellipse cx="12.403" cy="15.221" rx="0.050" ry="0.050" fill="none" stroke="#000000"  stroke-width="0.050" /><ellipse cx="12.287" cy="15.287" rx="0.050" ry="0.050" fill="none" stroke="#000000"  stroke-width="0.050" /><ellipse cx="12.220" cy="15.404" rx="0.050" ry="0.050" fill="none" stroke="#000000"  stroke-width="0.050" /><ellipse cx="12.220" cy="15.537" rx="0.050" ry="0.050" fill="none" stroke="#000000"  stroke-width="0.050" /><ellipse cx="12.287" cy="15.654" rx="0.050" ry="0.050" fill="none" stroke="#000000"  stroke-width="0.050" /><ellipse cx="12.403" cy="15.721" rx="0.050" ry="0.050" fill="none" stroke="#000000"  stroke-width="0.050" /><ellipse cx="12.537" cy="15.721" rx="0.050" ry="0.050" fill="none" stroke="#000000"  stroke-width="0.050" /><ellipse cx="12.653" cy="15.654" rx="0.050" ry="0.050" fill="none" stroke="#000000"  stroke-width="0.050" /><ellipse cx="12.470" cy="15.471" rx="0.167" ry="0.167" fill="none" stroke="#000000"  stroke-width="0.050" /><path stroke="#000000" fill="none" stroke-width="0.050"  d="M 12.720,15.554 C 12.753,15.571 12.770,15.554 12.820,15.554 C 12.870,15.554 12.853,15.537 12.853,15.571 C 12.837,15.604 12.853,15.604 12.803,15.604 C 12.753,15.604 12.753,15.621 12.687,15.571 C 12.620,15.537 12.670,15.521 12.720,15.554 "/>
<path stroke="#000000" fill="none" stroke-width="0.050"  d="M 3.470,14.704 C 3.637,14.704 4.303,14.787 4.470,14.954 C 4.637,15.121 4.637,15.371 4.470,15.454 C 4.303,15.537 3.970,15.287 3.970,15.204 C 3.970,15.121 4.137,15.121 4.053,15.037 C 3.970,14.954 3.970,15.037 3.887,15.037 C 3.803,15.037 3.887,15.037 3.887,15.121 C 3.887,15.204 3.887,15.371 3.970,15.371 C 4.053,15.371 4.053,15.371 4.053,15.454 C 4.053,15.537 4.220,15.954 4.220,16.121 C 4.220,16.287 4.303,16.454 4.137,16.454 C 3.970,16.454 2.970,16.454 2.803,16.454 C 2.637,16.454 2.720,16.287 2.720,16.121 C 2.720,15.954 2.887,15.537 2.887,15.454 C 2.887,15.371 2.887,15.371 2.970,15.371 C 3.053,15.371 3.053,15.204 3.053,15.121 C 3.053,15.037 3.137,15.037 3.053,15.037 C 2.970,15.037 2.970,14.954 2.887,15.037 C 2.803,15.121 2.970,15.121 2.970,15.204 C 2.970,15.287 2.637,15.537 2.470,15.454 C 2.303,15.371 2.303,15.121 2.470,14.954 C 2.637,14.787 3.303,14.704 3.470,14.704 "/>
<ellipse cx="3.470" cy="15.471" rx="0.350" ry="0.350" fill="none" stroke="#000000"  stroke-width="0.050" /><ellipse cx="3.653" cy="15.287" rx="0.050" ry="0.050" fill="none" stroke="#000000"  stroke-width="0.050" /><ellipse cx="3.537" cy="15.221" rx="0.050" ry="0.050" fill="none" stroke="#000000"  stroke-width="0.050" /><ellipse cx="3.403" cy="15.221" rx="0.050" ry="0.050" fill="none" stroke="#000000"  stroke-width="0.050" /><ellipse cx="3.287" cy="15.287" rx="0.050" ry="0.050" fill="none" stroke="#000000"  stroke-width="0.050" /><ellipse cx="3.220" cy="15.404" rx="0.050" ry="0.050" fill="none" stroke="#000000"  stroke-width="0.050" /><ellipse cx="3.220" cy="15.537" rx="0.050" ry="0.050" fill="none" stroke="#000000"  stroke-width="0.050" /><ellipse cx="3.287" cy="15.654" rx="0.050" ry="0.050" fill="none" stroke="#000000"  stroke-width="0.050" /><ellipse cx="3.403" cy="15.721" rx="0.050" ry="0.050" fill="none" stroke="#000000"  stroke-width="0.050" /><ellipse cx="3.537" cy="15.721" rx="0.050" ry="0.050" fill="none" stroke="#000000"  stroke-width="0.050" /><ellipse cx="3.653" cy="15.654" rx="0.050" ry="0.050" fill="none" stroke="#000000"  stroke-width="0.050" /><ellipse cx="3.470" cy="15.471" rx="0.167" ry="0.167" fill="none" stroke="#000000"  stroke-width="0.050" /><path stroke="#000000" fill="none" stroke-width="0.050"  d="M 3.720,15.554 C 3.753,15.571 3.770,15.554 3.820,15.554 C 3.870,15.554 3.853,15.537 3.853,15.571 C 3.837,15.604 3.853,15.604 3.803,15.604 C 3.753,15.604 3.753,15.621 3.687,15.571 C 3.620,15.537 3.670,15.521 3.720,15.554 "/>
<path stroke="#000000" fill="none" stroke-width="0.050"  d="M 7.970,14.704 C 8.137,14.704 8.803,14.787 8.970,14.954 C 9.137,15.121 9.137,15.371 8.970,15.454 C 8.803,15.537 8.470,15.287 8.470,15.204 C 8.470,15.121 8.637,15.121 8.553,15.037 C 8.470,14.954 8.470,15.037 8.387,15.037 C 8.303,15.037 8.387,15.037 8.387,15.121 C 8.387,15.204 8.387,15.371 8.470,15.371 C 8.553,15.371 8.553,15.371 8.553,15.454 C 8.553,15.537 8.720,15.954 8.720,16.121 C 8.720,16.287 8.803,16.454 8.637,16.454 C 8.470,16.454 7.470,16.454 7.303,16.454 C 7.137,16.454 7.220,16.287 7.220,16.121 C 7.220,15.954 7.387,15.537 7.387,15.454 C 7.387,15.371 7.387,15.371 7.470,15.371 C 7.553,15.371 7.553,15.204 7.553,15.121 C 7.553,15.037 7.637,15.037 7.553,15.037 C 7.470,15.037 7.470,14.954 7.387,15.037 C 7.303,15.121 7.470,15.121 7.470,15.204 C 7.470,15.287 7.137,15.537 6.970,15.454 C 6.803,15.371 6.803,15.121 6.970,14.954 C 7.137,14.787 7.803,14.704 7.970,14.704 "/>
<ellipse cx="7.970" cy="15.471" rx="0.350" ry="0.350" fill="none" stroke="#000000"  stroke-width="0.050" /><ellipse cx="8.153" cy="15.287" rx="0.050" ry="0.050" fill="none" stroke="#000000"  stroke-width="0.050" /><ellipse cx="8.037" cy="15.221" rx="0.050" ry="0.050" fill="none" stroke="#000000"  stroke-width="0.050" /><ellipse cx="7.903" cy="15.221" rx="0.050" ry="0.050" fill="none" stroke="#000000"  stroke-width="0.050" /><ellipse cx="7.787" cy="15.287" rx="0.050" ry="0.050" fill="none" stroke="#000000"  stroke-width="0.050" /><ellipse cx="7.720" cy="15.404" rx="0.050" ry="0.050" fill="none" stroke="#000000"  stroke-width="0.050" /><ellipse cx="7.720" cy="15.537" rx="0.050" ry="0.050" fill="none" stroke="#000000"  stroke-width="0.050" /><ellipse cx="7.787" cy="15.654" rx="0.050" ry="0.050" fill="none" stroke="#000000"  stroke-width="0.050" /><ellipse cx="7.903" cy="15.721" rx="0.050" ry="0.050" fill="none" stroke="#000000"  stroke-width="0.050" /><ellipse cx="8.037" cy="15.721" rx="0.050" ry="0.050" fill="none" stroke="#000000"  stroke-width="0.050" /><ellipse cx="8.153" cy="15.654" rx="0.050" ry="0.050" fill="none" stroke="#000000"  stroke-width="0.050" /><ellipse cx="7.970" cy="15.471" rx="0.167" ry="0.167" fill="none" stroke="#000000"  stroke-width="0.050" /><path stroke="#000000" fill="none" stroke-width="0.050"  d="M 8.220,15.554 C 8.253,15.571 8.270,15.554 8.320,15.554 C 8.370,15.554 8.353,15.537 8.353,15.571 C 8.337,15.604 8.353,15.604 8.303,15.604 C 8.253,15.604 8.253,15.621 8.187,15.571 C 8.120,15.537 8.170,15.521 8.220,15.554 "/>
<line x1="3.496" y1="14.682" x2="3.528" y2="13.729" stroke="#000000" stroke-width="0.050" />
<line x1="12.496" y1="14.682" x2="12.528" y2="13.729" stroke="#000000" stroke-width="0.050" />
<line x1="7.996" y1="14.682" x2="8.028" y2="13.729" stroke="#000000" stroke-width="0.050" />
<rect x="6.803" y="3.204" width="2.500" height="1.000" fill="#FFFFFF" stroke="none" stroke-width="0"/>
<rect x="6.803" y="3.204" width="2.500" height="1.000" fill="none" stroke="#000000" stroke-width="0.050" />
<line x1="8.030" y1="8.679" x2="7.972" y2="6.728" stroke="#000000" stroke-width="0.200" />
<text x="8.053" y="3.815"  fill="#000000" text-anchor="middle" font-size="0.40" font-family="sans" font-style="normal" font-weight="400">
voip.ms</text>
<path stroke="none" fill="#FFFFFF" stroke-width="0.050" d="M 8.905,5.517 L 8.904,5.502 L 8.901,5.486 L 8.895,5.471 L 8.887,5.456 L 8.877,5.440 L 8.865,5.425 L 8.850,5.410 L 8.834,5.396 L 8.816,5.382 L 8.796,5.368 L 8.774,5.355 L 8.749,5.342 L 8.723,5.329 L 8.695,5.317 L 8.665,5.305 L 8.634,5.294 L 8.601,5.284 L 8.568,5.274 L 8.532,5.265 L 8.495,5.256 L 8.457,5.248 L 8.418,5.241 L 8.379,5.234 L 8.338,5.228 L 8.295,5.224 L 8.253,5.219 L 8.211,5.216 L 8.167,5.213 L 8.123,5.211 L 8.079,5.210 L 8.036,5.209 L 8.036,5.209 L 7.991,5.210 L 7.947,5.211 L 7.903,5.213 L 7.860,5.216 L 7.817,5.219 L 7.775,5.224 L 7.733,5.228 L 7.692,5.234 L 7.652,5.241 L 7.614,5.248 L 7.576,5.256 L 7.538,5.265 L 7.503,5.274 L 7.468,5.284 L 7.436,5.294 L 7.405,5.305 L 7.376,5.317 L 7.347,5.329 L 7.322,5.342 L 7.297,5.355 L 7.275,5.368 L 7.254,5.382 L 7.236,5.396 L 7.220,5.410 L 7.205,5.425 L 7.193,5.440 L 7.184,5.456 L 7.176,5.471 L 7.170,5.486 L 7.166,5.502 L 7.165,5.517 L 7.165,5.517 L 7.166,5.533 L 7.170,5.549 L 7.176,5.564 L 7.184,5.579 L 7.193,5.595 L 7.205,5.609 L 7.220,5.624 L 7.236,5.639 L 7.254,5.653 L 7.275,5.667 L 7.297,5.680 L 7.322,5.693 L 7.347,5.705 L 7.376,5.718 L 7.405,5.729 L 7.436,5.740 L 7.468,5.751 L 7.503,5.760 L 7.538,5.770 L 7.576,5.779 L 7.614,5.786 L 7.652,5.794 L 7.692,5.800 L 7.733,5.806 L 7.775,5.811 L 7.817,5.815 L 7.860,5.819 L 7.903,5.821 L 7.947,5.823 L 7.991,5.825 L 8.036,5.825 L 8.036,5.825 L 8.079,5.825 L 8.123,5.823 L 8.167,5.821 L 8.211,5.819 L 8.253,5.815 L 8.295,5.811 L 8.338,5.806 L 8.379,5.800 L 8.418,5.794 L 8.457,5.786 L 8.495,5.779 L 8.532,5.770 L 8.568,5.760 L 8.601,5.751 L 8.634,5.740 L 8.665,5.729 L 8.695,5.718 L 8.723,5.705 L 8.749,5.693 L 8.774,5.680 L 8.796,5.667 L 8.816,5.653 L 8.834,5.639 L 8.850,5.624 L 8.865,5.609 L 8.877,5.595 L 8.887,5.579 L 8.895,5.564 L 8.901,5.549 L 8.904,5.533 L 8.905,5.517 "/>
<path stroke="none" fill="#FFFFFF" stroke-width="0.050" d="M 7.541,5.679 L 7.541,5.663 L 7.538,5.648 L 7.534,5.633 L 7.528,5.617 L 7.520,5.602 L 7.511,5.587 L 7.500,5.572 L 7.487,5.558 L 7.473,5.544 L 7.457,5.529 L 7.441,5.516 L 7.422,5.503 L 7.403,5.491 L 7.381,5.478 L 7.358,5.467 L 7.335,5.456 L 7.309,5.445 L 7.284,5.436 L 7.255,5.426 L 7.227,5.418 L 7.199,5.410 L 7.169,5.403 L 7.138,5.396 L 7.107,5.390 L 7.075,5.385 L 7.042,5.381 L 7.009,5.377 L 6.976,5.375 L 6.943,5.372 L 6.908,5.371 L 6.875,5.371 L 6.875,5.371 L 6.842,5.371 L 6.808,5.372 L 6.774,5.375 L 6.741,5.377 L 6.708,5.381 L 6.675,5.385 L 6.643,5.390 L 6.612,5.396 L 6.581,5.403 L 6.551,5.410 L 6.522,5.418 L 6.494,5.426 L 6.467,5.436 L 6.441,5.445 L 6.416,5.456 L 6.392,5.467 L 6.370,5.478 L 6.348,5.491 L 6.328,5.503 L 6.309,5.516 L 6.293,5.529 L 6.276,5.544 L 6.263,5.558 L 6.250,5.572 L 6.239,5.587 L 6.230,5.602 L 6.222,5.617 L 6.216,5.633 L 6.212,5.648 L 6.209,5.663 L 6.209,5.679 L 6.209,5.679 L 6.209,5.694 L 6.212,5.710 L 6.216,5.726 L 6.222,5.741 L 6.230,5.756 L 6.239,5.771 L 6.250,5.786 L 6.263,5.800 L 6.276,5.815 L 6.293,5.828 L 6.309,5.842 L 6.328,5.855 L 6.348,5.867 L 6.370,5.879 L 6.392,5.891 L 6.416,5.902 L 6.441,5.913 L 6.467,5.922 L 6.494,5.932 L 6.522,5.940 L 6.551,5.948 L 6.581,5.955 L 6.612,5.961 L 6.643,5.967 L 6.675,5.973 L 6.708,5.977 L 6.741,5.981 L 6.774,5.983 L 6.808,5.985 L 6.842,5.986 L 6.875,5.987 L 6.875,5.987 L 6.908,5.986 L 6.943,5.985 L 6.976,5.983 L 7.009,5.981 L 7.042,5.977 L 7.075,5.973 L 7.107,5.967 L 7.138,5.961 L 7.169,5.955 L 7.199,5.948 L 7.227,5.940 L 7.255,5.932 L 7.284,5.922 L 7.309,5.913 L 7.335,5.902 L 7.358,5.891 L 7.381,5.879 L 7.403,5.867 L 7.422,5.855 L 7.441,5.842 L 7.457,5.828 L 7.473,5.815 L 7.487,5.800 L 7.500,5.786 L 7.511,5.771 L 7.520,5.756 L 7.528,5.741 L 7.534,5.726 L 7.538,5.710 L 7.541,5.694 L 7.541,5.679 "/>
<path stroke="none" fill="#FFFFFF" stroke-width="0.050" d="M 6.701,5.993 L 6.700,5.980 L 6.699,5.967 L 6.696,5.955 L 6.692,5.942 L 6.687,5.930 L 6.681,5.918 L 6.673,5.906 L 6.665,5.893 L 6.655,5.882 L 6.645,5.871 L 6.633,5.860 L 6.621,5.849 L 6.608,5.839 L 6.593,5.829 L 6.578,5.820 L 6.562,5.811 L 6.545,5.802 L 6.527,5.794 L 6.509,5.787 L 6.490,5.779 L 6.470,5.773 L 6.450,5.767 L 6.429,5.762 L 6.408,5.757 L 6.387,5.753 L 6.365,5.750 L 6.343,5.747 L 6.320,5.745 L 6.298,5.743 L 6.275,5.742 L 6.252,5.742 L 6.252,5.742 L 6.229,5.742 L 6.206,5.743 L 6.184,5.745 L 6.162,5.747 L 6.140,5.750 L 6.118,5.753 L 6.096,5.757 L 6.075,5.762 L 6.055,5.767 L 6.034,5.773 L 6.015,5.779 L 5.996,5.787 L 5.977,5.794 L 5.960,5.802 L 5.943,5.811 L 5.927,5.820 L 5.912,5.829 L 5.897,5.839 L 5.883,5.849 L 5.871,5.860 L 5.859,5.871 L 5.849,5.882 L 5.840,5.893 L 5.831,5.906 L 5.824,5.918 L 5.817,5.930 L 5.812,5.942 L 5.809,5.955 L 5.805,5.967 L 5.803,5.980 L 5.803,5.993 L 5.803,5.993 L 5.803,6.005 L 5.805,6.018 L 5.809,6.031 L 5.812,6.043 L 5.817,6.056 L 5.824,6.068 L 5.831,6.080 L 5.840,6.092 L 5.849,6.104 L 5.859,6.114 L 5.871,6.126 L 5.883,6.136 L 5.897,6.146 L 5.912,6.156 L 5.927,6.166 L 5.943,6.175 L 5.960,6.184 L 5.977,6.191 L 5.996,6.199 L 6.015,6.206 L 6.034,6.212 L 6.055,6.218 L 6.075,6.223 L 6.096,6.228 L 6.118,6.232 L 6.140,6.236 L 6.162,6.239 L 6.184,6.241 L 6.206,6.242 L 6.229,6.243 L 6.252,6.244 L 6.252,6.244 L 6.275,6.243 L 6.298,6.242 L 6.320,6.241 L 6.343,6.239 L 6.365,6.236 L 6.387,6.232 L 6.408,6.228 L 6.429,6.223 L 6.450,6.218 L 6.470,6.212 L 6.490,6.206 L 6.509,6.199 L 6.527,6.191 L 6.545,6.184 L 6.562,6.175 L 6.578,6.166 L 6.593,6.156 L 6.608,6.146 L 6.621,6.136 L 6.633,6.126 L 6.645,6.114 L 6.655,6.104 L 6.665,6.092 L 6.673,6.080 L 6.681,6.068 L 6.687,6.056 L 6.692,6.043 L 6.696,6.031 L 6.699,6.018 L 6.700,6.005 L 6.701,5.993 "/>
<path stroke="none" fill="#FFFFFF" stroke-width="0.050" d="M 7.426,6.235 L 7.425,6.221 L 7.422,6.207 L 7.419,6.194 L 7.412,6.180 L 7.405,6.167 L 7.395,6.154 L 7.384,6.141 L 7.371,6.127 L 7.357,6.115 L 7.341,6.103 L 7.324,6.091 L 7.305,6.080 L 7.284,6.068 L 7.263,6.058 L 7.240,6.047 L 7.216,6.038 L 7.191,6.029 L 7.164,6.020 L 7.136,6.012 L 7.108,6.004 L 7.078,5.997 L 7.047,5.991 L 7.017,5.985 L 6.985,5.980 L 6.953,5.976 L 6.919,5.972 L 6.886,5.968 L 6.853,5.966 L 6.818,5.964 L 6.784,5.963 L 6.750,5.963 L 6.750,5.963 L 6.716,5.963 L 6.681,5.964 L 6.647,5.966 L 6.613,5.968 L 6.580,5.972 L 6.547,5.976 L 6.515,5.980 L 6.483,5.985 L 6.452,5.991 L 6.422,5.997 L 6.392,6.004 L 6.363,6.012 L 6.336,6.020 L 6.309,6.029 L 6.284,6.038 L 6.259,6.047 L 6.236,6.058 L 6.215,6.068 L 6.195,6.080 L 6.175,6.091 L 6.159,6.103 L 6.143,6.115 L 6.128,6.127 L 6.115,6.141 L 6.105,6.154 L 6.095,6.167 L 6.087,6.180 L 6.082,6.194 L 6.077,6.207 L 6.074,6.221 L 6.074,6.235 L 6.074,6.235 L 6.074,6.249 L 6.077,6.262 L 6.082,6.276 L 6.087,6.290 L 6.095,6.303 L 6.105,6.316 L 6.115,6.329 L 6.128,6.342 L 6.143,6.354 L 6.159,6.367 L 6.175,6.379 L 6.195,6.390 L 6.215,6.401 L 6.236,6.412 L 6.259,6.422 L 6.284,6.432 L 6.309,6.441 L 6.336,6.450 L 6.363,6.458 L 6.392,6.466 L 6.422,6.473 L 6.452,6.479 L 6.483,6.485 L 6.515,6.490 L 6.547,6.494 L 6.580,6.498 L 6.613,6.501 L 6.647,6.504 L 6.681,6.506 L 6.716,6.507 L 6.750,6.507 L 6.750,6.507 L 6.784,6.507 L 6.818,6.506 L 6.853,6.504 L 6.886,6.501 L 6.919,6.498 L 6.953,6.494 L 6.985,6.490 L 7.017,6.485 L 7.047,6.479 L 7.078,6.473 L 7.108,6.466 L 7.136,6.458 L 7.164,6.450 L 7.191,6.441 L 7.216,6.432 L 7.240,6.422 L 7.263,6.412 L 7.284,6.401 L 7.305,6.390 L 7.324,6.379 L 7.341,6.367 L 7.357,6.354 L 7.371,6.342 L 7.384,6.329 L 7.395,6.316 L 7.405,6.303 L 7.412,6.290 L 7.419,6.276 L 7.422,6.262 L 7.425,6.249 L 7.426,6.235 "/>
<path stroke="none" fill="#FFFFFF" stroke-width="0.050" d="M 9.050,6.375 L 9.048,6.359 L 9.045,6.342 L 9.038,6.326 L 9.028,6.310 L 9.017,6.294 L 9.003,6.279 L 8.987,6.263 L 8.968,6.248 L 8.947,6.233 L 8.922,6.218 L 8.897,6.205 L 8.868,6.191 L 8.839,6.178 L 8.806,6.165 L 8.771,6.153 L 8.736,6.141 L 8.698,6.130 L 8.658,6.120 L 8.617,6.110 L 8.574,6.101 L 8.530,6.093 L 8.485,6.085 L 8.438,6.078 L 8.390,6.073 L 8.342,6.067 L 8.293,6.063 L 8.243,6.059 L 8.193,6.056 L 8.142,6.054 L 8.091,6.053 L 8.039,6.053 L 8.039,6.053 L 7.989,6.053 L 7.938,6.054 L 7.887,6.056 L 7.836,6.059 L 7.787,6.063 L 7.738,6.067 L 7.689,6.073 L 7.641,6.078 L 7.595,6.085 L 7.550,6.093 L 7.506,6.101 L 7.463,6.110 L 7.422,6.120 L 7.382,6.130 L 7.344,6.141 L 7.308,6.153 L 7.274,6.165 L 7.241,6.178 L 7.211,6.191 L 7.183,6.205 L 7.157,6.218 L 7.133,6.233 L 7.112,6.248 L 7.093,6.263 L 7.077,6.279 L 7.062,6.294 L 7.051,6.310 L 7.042,6.326 L 7.035,6.342 L 7.031,6.359 L 7.030,6.375 L 7.030,6.375 L 7.031,6.392 L 7.035,6.408 L 7.042,6.424 L 7.051,6.440 L 7.062,6.456 L 7.077,6.472 L 7.093,6.487 L 7.112,6.502 L 7.133,6.518 L 7.157,6.532 L 7.183,6.546 L 7.211,6.560 L 7.241,6.573 L 7.274,6.586 L 7.308,6.598 L 7.344,6.609 L 7.382,6.620 L 7.422,6.631 L 7.463,6.640 L 7.506,6.649 L 7.550,6.658 L 7.595,6.665 L 7.641,6.672 L 7.689,6.678 L 7.738,6.684 L 7.787,6.688 L 7.836,6.691 L 7.887,6.694 L 7.938,6.696 L 7.989,6.698 L 8.039,6.698 L 8.039,6.698 L 8.091,6.698 L 8.142,6.696 L 8.193,6.694 L 8.243,6.691 L 8.293,6.688 L 8.342,6.684 L 8.390,6.678 L 8.438,6.672 L 8.485,6.665 L 8.530,6.658 L 8.574,6.649 L 8.617,6.640 L 8.658,6.631 L 8.698,6.620 L 8.736,6.609 L 8.771,6.598 L 8.806,6.586 L 8.839,6.573 L 8.868,6.560 L 8.897,6.546 L 8.922,6.532 L 8.947,6.518 L 8.968,6.502 L 8.987,6.487 L 9.003,6.472 L 9.017,6.456 L 9.028,6.440 L 9.038,6.424 L 9.045,6.408 L 9.048,6.392 L 9.050,6.375 "/>
<path stroke="none" fill="#FFFFFF" stroke-width="0.050" d="M 9.610,5.631 L 9.610,5.619 L 9.607,5.607 L 9.603,5.594 L 9.597,5.582 L 9.590,5.570 L 9.580,5.558 L 9.570,5.547 L 9.558,5.535 L 9.544,5.524 L 9.529,5.513 L 9.512,5.503 L 9.494,5.493 L 9.475,5.483 L 9.454,5.473 L 9.432,5.464 L 9.409,5.456 L 9.385,5.447 L 9.359,5.439 L 9.333,5.432 L 9.305,5.425 L 9.277,5.419 L 9.248,5.414 L 9.218,5.408 L 9.188,5.404 L 9.156,5.400 L 9.125,5.396 L 9.093,5.394 L 9.061,5.391 L 9.028,5.390 L 8.996,5.389 L 8.963,5.389 L 8.963,5.389 L 8.930,5.389 L 8.897,5.390 L 8.864,5.391 L 8.832,5.394 L 8.800,5.396 L 8.768,5.400 L 8.738,5.404 L 8.707,5.408 L 8.677,5.414 L 8.649,5.419 L 8.620,5.425 L 8.593,5.432 L 8.566,5.439 L 8.541,5.447 L 8.517,5.456 L 8.493,5.464 L 8.471,5.473 L 8.450,5.483 L 8.431,5.493 L 8.413,5.503 L 8.396,5.513 L 8.382,5.524 L 8.368,5.535 L 8.355,5.547 L 8.345,5.558 L 8.336,5.570 L 8.328,5.582 L 8.322,5.594 L 8.318,5.607 L 8.316,5.619 L 8.315,5.631 L 8.315,5.631 L 8.316,5.643 L 8.318,5.655 L 8.322,5.668 L 8.328,5.680 L 8.336,5.692 L 8.345,5.704 L 8.355,5.715 L 8.368,5.726 L 8.382,5.738 L 8.396,5.748 L 8.413,5.759 L 8.431,5.769 L 8.450,5.779 L 8.471,5.789 L 8.493,5.798 L 8.517,5.806 L 8.541,5.815 L 8.566,5.822 L 8.593,5.830 L 8.620,5.837 L 8.649,5.843 L 8.677,5.848 L 8.707,5.853 L 8.738,5.858 L 8.768,5.862 L 8.800,5.865 L 8.832,5.868 L 8.864,5.870 L 8.897,5.872 L 8.930,5.873 L 8.963,5.873 L 8.963,5.873 L 8.996,5.873 L 9.028,5.872 L 9.061,5.870 L 9.093,5.868 L 9.125,5.865 L 9.156,5.862 L 9.188,5.858 L 9.218,5.853 L 9.248,5.848 L 9.277,5.843 L 9.305,5.837 L 9.333,5.830 L 9.359,5.822 L 9.385,5.815 L 9.409,5.806 L 9.432,5.798 L 9.454,5.789 L 9.475,5.779 L 9.494,5.769 L 9.512,5.759 L 9.529,5.748 L 9.544,5.738 L 9.558,5.726 L 9.570,5.715 L 9.580,5.704 L 9.590,5.692 L 9.597,5.680 L 9.603,5.668 L 9.607,5.655 L 9.610,5.643 L 9.610,5.631 "/>
<path stroke="none" fill="#FFFFFF" stroke-width="0.050" d="M 9.793,5.942 L 9.793,5.930 L 9.791,5.918 L 9.786,5.905 L 9.780,5.893 L 9.774,5.881 L 9.764,5.869 L 9.754,5.858 L 9.742,5.847 L 9.729,5.835 L 9.713,5.825 L 9.696,5.814 L 9.679,5.804 L 9.659,5.794 L 9.639,5.784 L 9.617,5.775 L 9.594,5.767 L 9.570,5.758 L 9.545,5.751 L 9.518,5.743 L 9.491,5.736 L 9.463,5.730 L 9.434,5.724 L 9.404,5.719 L 9.375,5.715 L 9.344,5.711 L 9.312,5.708 L 9.281,5.705 L 9.249,5.702 L 9.217,5.701 L 9.184,5.700 L 9.152,5.700 L 9.152,5.700 L 9.118,5.700 L 9.086,5.701 L 9.054,5.702 L 9.022,5.705 L 8.990,5.708 L 8.959,5.711 L 8.928,5.715 L 8.898,5.719 L 8.868,5.724 L 8.839,5.730 L 8.812,5.736 L 8.785,5.743 L 8.758,5.751 L 8.733,5.758 L 8.709,5.767 L 8.685,5.775 L 8.664,5.784 L 8.644,5.794 L 8.624,5.804 L 8.606,5.814 L 8.590,5.825 L 8.574,5.835 L 8.561,5.847 L 8.549,5.858 L 8.539,5.869 L 8.530,5.881 L 8.522,5.893 L 8.517,5.905 L 8.512,5.918 L 8.510,5.930 L 8.509,5.942 L 8.509,5.942 L 8.510,5.954 L 8.512,5.966 L 8.517,5.978 L 8.522,5.990 L 8.530,6.003 L 8.539,6.015 L 8.549,6.026 L 8.561,6.037 L 8.574,6.049 L 8.590,6.059 L 8.606,6.070 L 8.624,6.080 L 8.644,6.090 L 8.664,6.100 L 8.685,6.109 L 8.709,6.117 L 8.733,6.126 L 8.758,6.133 L 8.785,6.141 L 8.812,6.147 L 8.839,6.154 L 8.868,6.159 L 8.898,6.164 L 8.928,6.169 L 8.959,6.173 L 8.990,6.176 L 9.022,6.179 L 9.054,6.181 L 9.086,6.183 L 9.118,6.184 L 9.152,6.184 L 9.152,6.184 L 9.184,6.184 L 9.217,6.183 L 9.249,6.181 L 9.281,6.179 L 9.312,6.176 L 9.344,6.173 L 9.375,6.169 L 9.404,6.164 L 9.434,6.159 L 9.463,6.154 L 9.491,6.147 L 9.518,6.141 L 9.545,6.133 L 9.570,6.126 L 9.594,6.117 L 9.617,6.109 L 9.639,6.100 L 9.659,6.090 L 9.679,6.080 L 9.696,6.070 L 9.713,6.059 L 9.729,6.049 L 9.742,6.037 L 9.754,6.026 L 9.764,6.015 L 9.774,6.003 L 9.780,5.990 L 9.786,5.978 L 9.791,5.966 L 9.793,5.954 L 9.793,5.942 "/>
<path stroke="none" fill="#FFFFFF" stroke-width="0.050" d="M 9.668,6.199 L 9.667,6.179 L 9.665,6.159 L 9.661,6.139 L 9.655,6.119 L 9.648,6.099 L 9.639,6.080 L 9.629,6.061 L 9.616,6.042 L 9.604,6.024 L 9.588,6.006 L 9.572,5.989 L 9.554,5.972 L 9.535,5.956 L 9.515,5.940 L 9.493,5.925 L 9.469,5.911 L 9.446,5.898 L 9.421,5.884 L 9.395,5.873 L 9.368,5.862 L 9.340,5.852 L 9.311,5.842 L 9.282,5.834 L 9.252,5.826 L 9.221,5.820 L 9.190,5.815 L 9.158,5.810 L 9.127,5.806 L 9.095,5.804 L 9.063,5.802 L 9.031,5.801 L 9.031,5.801 L 8.998,5.802 L 8.966,5.804 L 8.934,5.806 L 8.902,5.810 L 8.871,5.815 L 8.839,5.820 L 8.809,5.826 L 8.779,5.834 L 8.749,5.842 L 8.721,5.852 L 8.693,5.862 L 8.666,5.873 L 8.640,5.884 L 8.615,5.898 L 8.591,5.911 L 8.568,5.925 L 8.547,5.940 L 8.526,5.956 L 8.507,5.972 L 8.489,5.989 L 8.473,6.006 L 8.457,6.024 L 8.444,6.042 L 8.432,6.061 L 8.422,6.080 L 8.413,6.099 L 8.406,6.119 L 8.400,6.139 L 8.396,6.159 L 8.393,6.179 L 8.392,6.199 L 8.392,6.199 L 8.393,6.219 L 8.396,6.240 L 8.400,6.259 L 8.406,6.279 L 8.413,6.299 L 8.422,6.318 L 8.432,6.337 L 8.444,6.356 L 8.457,6.374 L 8.473,6.392 L 8.489,6.410 L 8.507,6.426 L 8.526,6.442 L 8.547,6.458 L 8.568,6.473 L 8.591,6.487 L 8.615,6.501 L 8.640,6.514 L 8.666,6.525 L 8.693,6.536 L 8.721,6.546 L 8.749,6.556 L 8.779,6.564 L 8.809,6.572 L 8.839,6.578 L 8.871,6.584 L 8.902,6.588 L 8.934,6.592 L 8.966,6.594 L 8.998,6.596 L 9.031,6.597 L 9.031,6.597 L 9.063,6.596 L 9.095,6.594 L 9.127,6.592 L 9.158,6.588 L 9.190,6.584 L 9.221,6.578 L 9.252,6.572 L 9.282,6.564 L 9.311,6.556 L 9.340,6.546 L 9.368,6.536 L 9.395,6.525 L 9.421,6.514 L 9.446,6.501 L 9.469,6.487 L 9.493,6.473 L 9.515,6.458 L 9.535,6.442 L 9.554,6.426 L 9.572,6.410 L 9.588,6.392 L 9.604,6.374 L 9.616,6.356 L 9.629,6.337 L 9.639,6.318 L 9.648,6.299 L 9.655,6.279 L 9.661,6.259 L 9.665,6.240 L 9.667,6.219 L 9.668,6.199 "/>
<path stroke="none" fill="#FFFFFF" stroke-width="0.050" d="M 9.117,5.960 L 9.115,5.940 L 9.111,5.920 L 9.102,5.899 L 9.090,5.880 L 9.076,5.860 L 9.058,5.840 L 9.036,5.822 L 9.012,5.803 L 8.985,5.784 L 8.955,5.767 L 8.921,5.750 L 8.885,5.733 L 8.846,5.716 L 8.805,5.701 L 8.761,5.686 L 8.714,5.671 L 8.666,5.658 L 8.615,5.646 L 8.563,5.633 L 8.507,5.622 L 8.450,5.612 L 8.392,5.603 L 8.333,5.594 L 8.272,5.587 L 8.209,5.580 L 8.147,5.575 L 8.083,5.570 L 8.019,5.566 L 7.954,5.564 L 7.888,5.563 L 7.822,5.562 L 7.822,5.562 L 7.757,5.563 L 7.692,5.564 L 7.627,5.566 L 7.562,5.570 L 7.498,5.575 L 7.435,5.580 L 7.373,5.587 L 7.312,5.594 L 7.252,5.603 L 7.194,5.612 L 7.138,5.622 L 7.082,5.633 L 7.030,5.646 L 6.979,5.658 L 6.930,5.671 L 6.884,5.686 L 6.840,5.701 L 6.799,5.716 L 6.759,5.733 L 6.723,5.750 L 6.690,5.767 L 6.660,5.784 L 6.632,5.803 L 6.608,5.822 L 6.587,5.840 L 6.568,5.860 L 6.554,5.880 L 6.542,5.899 L 6.534,5.920 L 6.529,5.940 L 6.527,5.960 L 6.527,5.960 L 6.529,5.980 L 6.534,6.000 L 6.542,6.020 L 6.554,6.040 L 6.568,6.059 L 6.587,6.078 L 6.608,6.098 L 6.632,6.117 L 6.660,6.135 L 6.690,6.153 L 6.723,6.170 L 6.759,6.187 L 6.799,6.203 L 6.840,6.218 L 6.884,6.234 L 6.930,6.248 L 6.979,6.262 L 7.030,6.274 L 7.082,6.286 L 7.138,6.297 L 7.194,6.307 L 7.252,6.317 L 7.312,6.325 L 7.373,6.332 L 7.435,6.339 L 7.498,6.344 L 7.562,6.349 L 7.627,6.353 L 7.692,6.355 L 7.757,6.357 L 7.822,6.357 L 7.822,6.357 L 7.888,6.357 L 7.954,6.355 L 8.019,6.353 L 8.083,6.349 L 8.147,6.344 L 8.209,6.339 L 8.272,6.332 L 8.333,6.325 L 8.392,6.317 L 8.450,6.307 L 8.507,6.297 L 8.563,6.286 L 8.615,6.274 L 8.666,6.262 L 8.714,6.248 L 8.761,6.234 L 8.805,6.218 L 8.846,6.203 L 8.885,6.187 L 8.921,6.170 L 8.955,6.153 L 8.985,6.135 L 9.012,6.117 L 9.036,6.098 L 9.058,6.078 L 9.076,6.059 L 9.090,6.040 L 9.102,6.020 L 9.111,6.000 L 9.115,5.980 L 9.117,5.960 "/>
<path stroke="none" fill="#FFFFFF" stroke-width="0.050" d="M 8.045,5.515 L 8.902,5.446 L 8.891,5.431 L 8.878,5.416 L 8.863,5.401 L 8.846,5.387 L 8.826,5.372 L 8.805,5.359 L 8.782,5.345 L 8.757,5.332 L 8.730,5.320 L 8.701,5.308 L 8.671,5.296 L 8.639,5.286 L 8.605,5.275 L 8.570,5.265 L 8.534,5.257 L 8.496,5.248 L 8.457,5.240 L 8.418,5.233 L 8.376,5.227 L 8.335,5.221 L 8.293,5.216 L 8.250,5.212 L 8.206,5.209 L 8.163,5.206 L 8.119,5.205 L 8.074,5.204 L 8.029,5.204 L 7.984,5.204 L 7.941,5.206 L 7.897,5.208 L 7.853,5.211 L 7.810,5.215 L 7.768,5.220 L 7.725,5.225 L 7.684,5.231 L 7.644,5.238 L 7.605,5.245 L 7.567,5.254 L 7.530,5.262 L 7.495,5.272 L 7.461,5.282 L 7.429,5.293 L 7.397,5.304 L 7.368,5.316 L 7.341,5.328 L 7.315,5.341 L 7.291,5.355 L 7.270,5.368 L 7.249,5.382 L 7.231,5.396 L 7.215,5.411 L 7.202,5.426 L 7.191,5.442 L 7.181,5.457 L 8.045,5.515 "/>
<path stroke="#6C8F93" fill="none" stroke-width="0.050"  d="M 8.902,5.445 L 8.891,5.430 L 8.878,5.415 L 8.863,5.400 L 8.845,5.386 L 8.826,5.372 L 8.804,5.358 L 8.781,5.345 L 8.755,5.332 L 8.729,5.320 L 8.701,5.308 L 8.669,5.296 L 8.638,5.285 L 8.604,5.274 L 8.569,5.265 L 8.533,5.256 L 8.495,5.248 L 8.457,5.240 L 8.417,5.233 L 8.376,5.226 L 8.335,5.221 L 8.293,5.216 L 8.249,5.212 L 8.206,5.209 L 8.162,5.206 L 8.117,5.205 L 8.074,5.204 L 8.029,5.204 L 7.984,5.204 L 7.941,5.206 L 7.896,5.208 L 7.853,5.211 L 7.810,5.215 L 7.768,5.220 L 7.725,5.225 L 7.684,5.231 L 7.644,5.238 L 7.606,5.245 L 7.568,5.253 L 7.531,5.262 L 7.496,5.272 L 7.462,5.282 L 7.430,5.292 L 7.398,5.304 L 7.369,5.315 L 7.341,5.328 L 7.316,5.341 L 7.292,5.354 L 7.270,5.368 L 7.250,5.382 L 7.232,5.396 L 7.216,5.411 L 7.202,5.425 L 7.191,5.441 L 7.181,5.456 "/>
<path stroke="none" fill="#FFFFFF" stroke-width="0.050" d="M 6.880,5.676 L 7.312,5.438 L 7.286,5.428 L 7.258,5.419 L 7.229,5.410 L 7.200,5.403 L 7.169,5.396 L 7.138,5.389 L 7.107,5.383 L 7.074,5.379 L 7.042,5.374 L 7.008,5.371 L 6.975,5.368 L 6.941,5.366 L 6.907,5.365 L 6.873,5.365 L 6.839,5.365 L 6.805,5.367 L 6.772,5.369 L 6.738,5.372 L 6.705,5.376 L 6.673,5.381 L 6.640,5.386 L 6.609,5.391 L 6.578,5.398 L 6.548,5.405 L 6.519,5.414 L 6.491,5.423 L 6.464,5.432 L 6.438,5.442 L 6.413,5.453 L 6.389,5.464 L 6.366,5.476 L 6.345,5.488 L 6.325,5.501 L 6.307,5.514 L 6.290,5.528 L 6.274,5.542 L 6.260,5.556 L 6.248,5.571 L 6.237,5.585 L 6.228,5.601 L 6.221,5.616 L 6.216,5.632 L 6.211,5.647 L 6.209,5.663 L 6.209,5.679 L 6.209,5.694 L 6.213,5.710 L 6.217,5.726 L 6.880,5.676 "/>
<path stroke="#6C8F93" fill="none" stroke-width="0.050"  d="M 7.310,5.437 L 7.283,5.427 L 7.255,5.418 L 7.227,5.410 L 7.197,5.402 L 7.166,5.395 L 7.136,5.389 L 7.104,5.383 L 7.072,5.378 L 7.039,5.374 L 7.006,5.371 L 6.972,5.368 L 6.938,5.366 L 6.904,5.365 L 6.870,5.365 L 6.836,5.366 L 6.803,5.367 L 6.769,5.369 L 6.735,5.372 L 6.702,5.376 L 6.670,5.381 L 6.638,5.386 L 6.607,5.392 L 6.577,5.399 L 6.547,5.406 L 6.517,5.415 L 6.489,5.423 L 6.462,5.433 L 6.436,5.442 L 6.412,5.454 L 6.387,5.465 L 6.365,5.476 L 6.344,5.489 L 6.324,5.501 L 6.306,5.515 L 6.289,5.529 L 6.274,5.542 L 6.259,5.557 L 6.248,5.571 L 6.237,5.587 L 6.228,5.602 L 6.221,5.617 L 6.216,5.633 L 6.211,5.648 L 6.209,5.663 L 6.209,5.680 L 6.210,5.695 L 6.213,5.711 L 6.217,5.726 "/>
<path stroke="none" fill="#FFFFFF" stroke-width="0.050" d="M 6.759,6.232 L 6.064,6.223 L 6.064,6.237 L 6.066,6.252 L 6.069,6.266 L 6.074,6.280 L 6.081,6.293 L 6.089,6.307 L 6.099,6.321 L 6.111,6.334 L 6.125,6.347 L 6.140,6.360 L 6.157,6.372 L 6.175,6.384 L 6.195,6.396 L 6.216,6.407 L 6.239,6.418 L 6.263,6.428 L 6.287,6.438 L 6.314,6.447 L 6.341,6.456 L 6.370,6.464 L 6.400,6.472 L 6.429,6.479 L 6.461,6.485 L 6.493,6.491 L 6.526,6.496 L 6.559,6.501 L 6.592,6.504 L 6.627,6.508 L 6.661,6.509 L 6.696,6.512 L 6.731,6.512 L 6.766,6.512 L 6.801,6.512 L 6.835,6.511 L 6.870,6.509 L 6.905,6.506 L 6.939,6.503 L 6.972,6.499 L 7.005,6.494 L 7.038,6.489 L 7.069,6.483 L 7.100,6.476 L 7.130,6.469 L 7.159,6.462 L 7.188,6.453 L 7.215,6.444 L 6.759,6.232 "/>
<path stroke="#6C8F93" fill="none" stroke-width="0.050"  d="M 6.064,6.223 L 6.063,6.237 L 6.066,6.252 L 6.069,6.265 L 6.074,6.280 L 6.080,6.293 L 6.090,6.307 L 6.099,6.321 L 6.111,6.334 L 6.125,6.347 L 6.140,6.360 L 6.156,6.372 L 6.174,6.384 L 6.194,6.395 L 6.216,6.407 L 6.237,6.417 L 6.261,6.428 L 6.286,6.438 L 6.312,6.447 L 6.340,6.456 L 6.368,6.464 L 6.397,6.472 L 6.428,6.478 L 6.459,6.485 L 6.491,6.491 L 6.524,6.496 L 6.556,6.500 L 6.590,6.504 L 6.624,6.507 L 6.658,6.509 L 6.693,6.511 L 6.728,6.512 L 6.763,6.512 L 6.798,6.512 L 6.833,6.511 L 6.867,6.509 L 6.902,6.507 L 6.935,6.503 L 6.969,6.500 L 7.003,6.495 L 7.035,6.490 L 7.066,6.484 L 7.097,6.477 L 7.127,6.470 L 7.157,6.462 L 7.185,6.454 L 7.211,6.445 "/>
<path stroke="none" fill="#FFFFFF" stroke-width="0.050" d="M 8.972,5.625 L 9.585,5.704 L 9.594,5.692 L 9.603,5.680 L 9.610,5.668 L 9.615,5.656 L 9.618,5.644 L 9.620,5.631 L 9.620,5.619 L 9.618,5.607 L 9.615,5.595 L 9.610,5.583 L 9.603,5.571 L 9.594,5.559 L 9.585,5.547 L 9.574,5.535 L 9.561,5.524 L 9.546,5.513 L 9.530,5.502 L 9.513,5.492 L 9.494,5.482 L 9.474,5.472 L 9.453,5.463 L 9.430,5.454 L 9.406,5.445 L 9.381,5.437 L 9.355,5.430 L 9.328,5.423 L 9.300,5.416 L 9.272,5.410 L 9.242,5.405 L 9.212,5.400 L 9.180,5.396 L 9.150,5.393 L 9.117,5.389 L 9.085,5.387 L 9.053,5.385 L 9.020,5.384 L 8.987,5.383 L 8.955,5.383 L 8.922,5.384 L 8.889,5.385 L 8.857,5.387 L 8.825,5.390 L 8.793,5.393 L 8.761,5.396 L 8.972,5.625 "/>
<path stroke="#6C8F93" fill="none" stroke-width="0.050"  d="M 9.524,5.748 L 9.584,5.704 L 9.594,5.692 L 9.602,5.681 L 9.610,5.669 L 9.614,5.656 L 9.618,5.645 L 9.620,5.633 L 9.620,5.620 L 9.618,5.608 L 9.615,5.595 L 9.610,5.583 L 9.604,5.571 L 9.595,5.559 L 9.586,5.548 L 9.575,5.536 L 9.561,5.525 L 9.547,5.514 L 9.531,5.503 L 9.514,5.493 L 9.495,5.483 L 9.475,5.473 L 9.454,5.464 L 9.431,5.454 L 9.407,5.446 L 9.382,5.438 L 9.356,5.430 L 9.329,5.423 L 9.302,5.417 L 9.273,5.411 L 9.244,5.405 L 9.214,5.401 L 9.183,5.396 L 9.152,5.393 L 9.120,5.389 L 9.088,5.387 L 9.055,5.385 L 9.022,5.384 L 8.990,5.383 L 8.956,5.383 L 8.924,5.384 L 8.891,5.385 L 8.858,5.387 L 8.826,5.389 L 8.795,5.393 L 8.763,5.396 "/>
<path stroke="none" fill="#FFFFFF" stroke-width="0.050" d="M 9.059,5.945 L 9.748,6.044 L 9.761,6.031 L 9.774,6.018 L 9.783,6.005 L 9.791,5.991 L 9.798,5.978 L 9.801,5.964 L 9.803,5.950 L 9.802,5.936 L 9.800,5.922 L 9.796,5.908 L 9.789,5.895 L 9.781,5.881 L 9.771,5.868 L 9.758,5.855 L 9.744,5.842 L 9.728,5.830 L 9.710,5.818 L 9.690,5.806 L 9.668,5.794 L 9.059,5.945 "/>
<path stroke="#6C8F93" fill="none" stroke-width="0.050"  d="M 9.657,6.090 L 9.748,6.045 L 9.761,6.032 L 9.774,6.019 L 9.783,6.005 L 9.791,5.991 L 9.798,5.978 L 9.802,5.964 L 9.803,5.950 L 9.803,5.936 L 9.800,5.922 L 9.796,5.908 L 9.790,5.895 L 9.781,5.881 L 9.770,5.868 L 9.758,5.854 L 9.744,5.841 L 9.727,5.829 L 9.708,5.816 L 9.688,5.804 L 9.667,5.793 L 9.524,5.748 "/>
<path stroke="none" fill="#FFFFFF" stroke-width="0.050" d="M 9.030,6.208 L 8.813,6.586 L 8.845,6.592 L 8.877,6.597 L 8.910,6.601 L 8.943,6.604 L 8.977,6.607 L 9.009,6.608 L 9.043,6.608 L 9.077,6.607 L 9.109,6.605 L 9.143,6.602 L 9.175,6.598 L 9.208,6.593 L 9.240,6.587 L 9.272,6.580 L 9.302,6.572 L 9.333,6.563 L 9.361,6.553 L 9.390,6.542 L 9.418,6.531 L 9.444,6.518 L 9.469,6.505 L 9.494,6.491 L 9.517,6.476 L 9.539,6.461 L 9.559,6.445 L 9.579,6.428 L 9.596,6.411 L 9.613,6.393 L 9.627,6.375 L 9.640,6.356 L 9.652,6.337 L 9.661,6.318 L 9.670,6.298 L 9.677,6.277 L 9.682,6.258 L 9.685,6.237 L 9.687,6.217 L 9.687,6.196 L 9.685,6.176 L 9.682,6.156 L 9.676,6.136 L 9.669,6.115 L 9.661,6.096 L 9.030,6.208 "/>
<path stroke="#6C8F93" fill="none" stroke-width="0.050"  d="M 8.815,6.586 L 8.847,6.592 L 8.879,6.598 L 8.912,6.602 L 8.945,6.605 L 8.978,6.607 L 9.012,6.608 L 9.045,6.608 L 9.078,6.607 L 9.112,6.605 L 9.145,6.602 L 9.177,6.598 L 9.209,6.593 L 9.242,6.586 L 9.274,6.580 L 9.304,6.571 L 9.334,6.563 L 9.363,6.553 L 9.392,6.542 L 9.419,6.530 L 9.446,6.518 L 9.471,6.504 L 9.495,6.490 L 9.518,6.476 L 9.540,6.460 L 9.561,6.444 L 9.580,6.428 L 9.597,6.410 L 9.613,6.392 L 9.628,6.374 L 9.641,6.355 L 9.653,6.336 L 9.663,6.316 L 9.670,6.296 L 9.677,6.277 L 9.682,6.256 L 9.685,6.236 L 9.687,6.216 L 9.687,6.195 L 9.685,6.175 L 9.681,6.155 L 9.676,6.134 L 9.669,6.114 L 9.661,6.095 "/>
<path stroke="none" fill="#FFFFFF" stroke-width="0.050" d="M 6.276,5.993 L 6.243,5.736 L 6.219,5.738 L 6.195,5.739 L 6.172,5.742 L 6.148,5.745 L 6.125,5.750 L 6.102,5.754 L 6.080,5.759 L 6.059,5.765 L 6.037,5.771 L 6.017,5.778 L 5.997,5.785 L 5.978,5.793 L 5.960,5.802 L 5.942,5.811 L 5.925,5.820 L 5.910,5.830 L 5.895,5.840 L 5.882,5.851 L 5.869,5.862 L 5.857,5.874 L 5.847,5.886 L 5.837,5.898 L 5.828,5.910 L 5.821,5.922 L 5.816,5.935 L 5.810,5.948 L 5.807,5.961 L 5.805,5.974 L 5.803,5.987 L 5.803,6.000 L 5.805,6.013 L 5.807,6.026 L 5.810,6.039 L 5.816,6.052 L 5.822,6.064 L 5.829,6.077 L 5.838,6.089 L 5.847,6.101 L 5.858,6.113 L 5.870,6.124 L 5.883,6.136 L 5.896,6.146 L 5.912,6.156 L 5.928,6.166 L 5.944,6.176 L 5.961,6.184 L 5.980,6.193 L 5.999,6.201 L 6.019,6.208 L 6.040,6.215 L 6.060,6.222 L 6.276,5.993 "/>
<path stroke="#6C8F93" fill="none" stroke-width="0.050"  d="M 6.244,5.736 L 6.220,5.738 L 6.197,5.739 L 6.173,5.742 L 6.150,5.745 L 6.128,5.749 L 6.105,5.753 L 6.083,5.758 L 6.062,5.764 L 6.041,5.770 L 6.021,5.777 L 6.001,5.784 L 5.982,5.791 L 5.964,5.800 L 5.947,5.808 L 5.930,5.818 L 5.914,5.827 L 5.899,5.837 L 5.886,5.848 L 5.872,5.859 L 5.861,5.870 L 5.851,5.881 L 5.840,5.893 L 5.832,5.905 L 5.824,5.917 L 5.817,5.929 L 5.812,5.942 L 5.808,5.954 L 5.805,5.967 L 5.803,5.980 L 5.803,5.993 L 5.803,6.006 L 5.806,6.019 L 5.809,6.032 L 5.812,6.044 L 5.818,6.056 L 5.824,6.069 L 5.832,6.081 L 5.840,6.093 L 5.851,6.105 L 5.861,6.117 L 5.873,6.127 L 5.886,6.138 L 5.900,6.149 L 5.914,6.159 L 5.930,6.168 L 5.947,6.178 L 5.964,6.186 L 5.983,6.194 L 6.002,6.202 L 6.021,6.209 L 6.041,6.216 L 6.063,6.222 "/>
<path stroke="none" fill="#FFFFFF" stroke-width="0.050" d="M 8.030,6.405 L 7.045,6.435 L 7.051,6.450 L 7.059,6.464 L 7.071,6.479 L 7.084,6.494 L 7.100,6.508 L 7.119,6.522 L 7.139,6.536 L 7.162,6.549 L 7.187,6.562 L 7.215,6.575 L 7.244,6.586 L 7.275,6.598 L 7.308,6.610 L 7.343,6.620 L 7.380,6.631 L 7.419,6.640 L 7.459,6.649 L 7.500,6.657 L 7.543,6.665 L 7.586,6.672 L 7.632,6.678 L 7.678,6.684 L 7.725,6.689 L 7.772,6.694 L 7.821,6.697 L 7.870,6.700 L 7.920,6.702 L 7.968,6.703 L 8.019,6.704 L 8.068,6.704 L 8.119,6.703 L 8.168,6.701 L 8.217,6.699 L 8.266,6.695 L 8.314,6.691 L 8.361,6.687 L 8.407,6.681 L 8.453,6.675 L 8.498,6.668 L 8.541,6.661 L 8.583,6.653 L 8.624,6.644 L 8.663,6.635 L 8.701,6.625 L 8.736,6.614 L 8.771,6.604 L 8.803,6.592 L 8.833,6.580 L 8.861,6.568 L 8.887,6.555 L 8.911,6.542 L 8.933,6.529 L 8.952,6.514 L 8.969,6.500 L 8.030,6.405 "/>
<path stroke="#6C8F93" fill="none" stroke-width="0.050"  d="M 7.045,6.435 L 7.051,6.450 L 7.060,6.465 L 7.071,6.480 L 7.085,6.494 L 7.100,6.508 L 7.119,6.522 L 7.139,6.536 L 7.162,6.549 L 7.188,6.562 L 7.215,6.575 L 7.244,6.586 L 7.275,6.598 L 7.308,6.610 L 7.343,6.620 L 7.380,6.631 L 7.419,6.640 L 7.458,6.649 L 7.500,6.657 L 7.542,6.665 L 7.586,6.672 L 7.631,6.678 L 7.677,6.684 L 7.724,6.689 L 7.772,6.693 L 7.820,6.697 L 7.869,6.700 L 7.918,6.702 L 7.968,6.703 L 8.017,6.704 L 8.067,6.704 L 8.117,6.703 L 8.166,6.701 L 8.215,6.699 L 8.264,6.695 L 8.312,6.691 L 8.360,6.687 L 8.405,6.682 L 8.451,6.675 L 8.496,6.669 L 8.539,6.661 L 8.581,6.653 L 8.622,6.645 L 8.661,6.635 L 8.698,6.626 L 8.734,6.615 L 8.768,6.604 L 8.801,6.592 L 8.831,6.581 L 8.860,6.569 L 8.885,6.556 L 8.909,6.542 L 8.931,6.529 L 8.950,6.515 L 8.968,6.501 "/>
<text x="7.949" y="6.075"  fill="#000000" text-anchor="middle" font-size="0.40" font-family="sans" font-style="normal" font-weight="400">
Internet</text>
<line x1="7.985" y1="5.180" x2="8.029" y2="4.227" stroke="#000000" stroke-width="0.400" />
<line x1="8.046" y1="3.179" x2="8.038" y2="2.528" stroke="#000000" stroke-width="0.400" />
<rect x="2.303" y="12.204" width="2.500" height="1.500" fill="#FFFFFF" stroke="none" stroke-width="0"/>
<rect x="2.303" y="12.204" width="2.500" height="1.500" fill="none" stroke="#FFA500" stroke-width="0.050" />
<text x="3.553" y="13.201"  fill="#FFA500" text-anchor="middle" font-size="0.89" font-family="sans" font-style="normal" font-weight="400">
XiVO</text>
<rect x="6.803" y="12.204" width="2.500" height="1.500" fill="#FFFFFF" stroke="none" stroke-width="0"/>
<rect x="6.803" y="12.204" width="2.500" height="1.500" fill="none" stroke="#FFA500" stroke-width="0.050" />
<text x="8.053" y="13.201"  fill="#FFA500" text-anchor="middle" font-size="0.89" font-family="sans" font-style="normal" font-weight="400">
XiVO</text>
<rect x="11.303" y="12.204" width="2.500" height="1.500" fill="#FFFFFF" stroke="none" stroke-width="0"/>
<rect x="11.303" y="12.204" width="2.500" height="1.500" fill="none" stroke="#FFA500" stroke-width="0.050" />
<text x="12.553" y="13.201"  fill="#FFA500" text-anchor="middle" font-size="0.89" font-family="sans" font-style="normal" font-weight="400">
XiVO</text>
<line x1="4.549" y1="12.180" x2="7.058" y2="10.228" stroke="#000000" stroke-width="0.050" />
<line x1="8.053" y1="12.180" x2="8.053" y2="10.228" stroke="#000000" stroke-width="0.050" />
<line x1="9.049" y1="10.228" x2="11.558" y2="12.180" stroke="#000000" stroke-width="0.050" />
<path stroke="none" fill="#222222" stroke-width="0.001" d="M 13.470,8.704 C 13.637,8.704 14.303,8.787 14.470,8.954 C 14.637,9.121 14.637,9.371 14.470,9.454 C 14.303,9.537 13.970,9.287 13.970,9.204 C 13.970,9.121 14.137,9.121 14.053,9.037 C 13.970,8.954 13.970,9.037 13.887,9.037 C 13.803,9.037 13.887,9.037 13.887,9.121 C 13.887,9.204 13.887,9.371 13.970,9.371 C 14.053,9.371 14.053,9.371 14.053,9.454 C 14.053,9.537 14.220,9.954 14.220,10.121 C 14.220,10.287 14.303,10.454 14.137,10.454 C 13.970,10.454 12.970,10.454 12.803,10.454 C 12.637,10.454 12.720,10.287 12.720,10.121 C 12.720,9.954 12.887,9.537 12.887,9.454 C 12.887,9.371 12.887,9.371 12.970,9.371 C 13.053,9.371 13.053,9.204 13.053,9.121 C 13.053,9.037 13.137,9.037 13.053,9.037 C 12.970,9.037 12.970,8.954 12.887,9.037 C 12.803,9.121 12.970,9.121 12.970,9.204 C 12.970,9.287 12.637,9.537 12.470,9.454 C 12.303,9.371 12.303,9.121 12.470,8.954 C 12.637,8.787 13.303,8.704 13.470,8.704 "/>
<path stroke="#000000" fill="none" stroke-width="0.001"  d="M 13.470,8.704 C 13.637,8.704 14.303,8.787 14.470,8.954 C 14.637,9.121 14.637,9.371 14.470,9.454 C 14.303,9.537 13.970,9.287 13.970,9.204 C 13.970,9.121 14.137,9.121 14.053,9.037 C 13.970,8.954 13.970,9.037 13.887,9.037 C 13.803,9.037 13.887,9.037 13.887,9.121 C 13.887,9.204 13.887,9.371 13.970,9.371 C 14.053,9.371 14.053,9.371 14.053,9.454 C 14.053,9.537 14.220,9.954 14.220,10.121 C 14.220,10.287 14.303,10.454 14.137,10.454 C 13.970,10.454 12.970,10.454 12.803,10.454 C 12.637,10.454 12.720,10.287 12.720,10.121 C 12.720,9.954 12.887,9.537 12.887,9.454 C 12.887,9.371 12.887,9.371 12.970,9.371 C 13.053,9.371 13.053,9.204 13.053,9.121 C 13.053,9.037 13.137,9.037 13.053,9.037 C 12.970,9.037 12.970,8.954 12.887,9.037 C 12.803,9.121 12.970,9.121 12.970,9.204 C 12.970,9.287 12.637,9.537 12.470,9.454 C 12.303,9.371 12.303,9.121 12.470,8.954 C 12.637,8.787 13.303,8.704 13.470,8.704 "/>
<ellipse cx="13.470" cy="9.471" rx="0.350" ry="0.350" fill="#777777" stroke="none"  /><ellipse cx="13.470" cy="9.471" rx="0.350" ry="0.350" fill="none" stroke="#000000"  stroke-width="0.001" /><ellipse cx="13.653" cy="9.287" rx="0.050" ry="0.050" fill="#CCCCCC" stroke="none"  /><ellipse cx="13.653" cy="9.287" rx="0.050" ry="0.050" fill="none" stroke="#000000"  stroke-width="0.001" /><ellipse cx="13.537" cy="9.221" rx="0.050" ry="0.050" fill="#CCCCCC" stroke="none"  /><ellipse cx="13.537" cy="9.221" rx="0.050" ry="0.050" fill="none" stroke="#000000"  stroke-width="0.001" /><ellipse cx="13.403" cy="9.221" rx="0.050" ry="0.050" fill="#CCCCCC" stroke="none"  /><ellipse cx="13.403" cy="9.221" rx="0.050" ry="0.050" fill="none" stroke="#000000"  stroke-width="0.001" /><ellipse cx="13.287" cy="9.287" rx="0.050" ry="0.050" fill="#CCCCCC" stroke="none"  /><ellipse cx="13.287" cy="9.287" rx="0.050" ry="0.050" fill="none" stroke="#000000"  stroke-width="0.001" /><ellipse cx="13.220" cy="9.404" rx="0.050" ry="0.050" fill="#CCCCCC" stroke="none"  /><ellipse cx="13.220" cy="9.404" rx="0.050" ry="0.050" fill="none" stroke="#000000"  stroke-width="0.001" /><ellipse cx="13.220" cy="9.537" rx="0.050" ry="0.050" fill="#CCCCCC" stroke="none"  /><ellipse cx="13.220" cy="9.537" rx="0.050" ry="0.050" fill="none" stroke="#000000"  stroke-width="0.001" /><ellipse cx="13.287" cy="9.654" rx="0.050" ry="0.050" fill="#CCCCCC" stroke="none"  /><ellipse cx="13.287" cy="9.654" rx="0.050" ry="0.050" fill="none" stroke="#000000"  stroke-width="0.001" /><ellipse cx="13.403" cy="9.721" rx="0.050" ry="0.050" fill="#CCCCCC" stroke="none"  /><ellipse cx="13.403" cy="9.721" rx="0.050" ry="0.050" fill="none" stroke="#000000"  stroke-width="0.001" /><ellipse cx="13.537" cy="9.721" rx="0.050" ry="0.050" fill="#CCCCCC" stroke="none"  /><ellipse cx="13.537" cy="9.721" rx="0.050" ry="0.050" fill="none" stroke="#000000"  stroke-width="0.001" /><ellipse cx="13.653" cy="9.654" rx="0.050" ry="0.050" fill="#CCCCCC" stroke="none"  /><ellipse cx="13.653" cy="9.654" rx="0.050" ry="0.050" fill="none" stroke="#000000"  stroke-width="0.001" /><ellipse cx="13.470" cy="9.471" rx="0.167" ry="0.167" fill="#AAAAAA" stroke="none"  /><ellipse cx="13.470" cy="9.471" rx="0.167" ry="0.167" fill="none" stroke="#000000"  stroke-width="0.001" /><path stroke="none" fill="#AAAAAA" stroke-width="0.001" d="M 13.720,9.554 C 13.753,9.571 13.770,9.554 13.820,9.554 C 13.870,9.554 13.853,9.537 13.853,9.571 C 13.837,9.604 13.853,9.604 13.803,9.604 C 13.753,9.604 13.753,9.621 13.687,9.571 C 13.620,9.537 13.670,9.521 13.720,9.554 "/>
<path stroke="#000000" fill="none" stroke-width="0.001"  d="M 13.720,9.554 C 13.753,9.571 13.770,9.554 13.820,9.554 C 13.870,9.554 13.853,9.537 13.853,9.571 C 13.837,9.604 13.853,9.604 13.803,9.604 C 13.753,9.604 13.753,9.621 13.687,9.571 C 13.620,9.537 13.670,9.521 13.720,9.554 "/>
<path stroke="none" fill="#222222" stroke-width="0.001" d="M 2.970,8.704 C 3.137,8.704 3.803,8.787 3.970,8.954 C 4.137,9.121 4.137,9.371 3.970,9.454 C 3.803,9.537 3.470,9.287 3.470,9.204 C 3.470,9.121 3.637,9.121 3.553,9.037 C 3.470,8.954 3.470,9.037 3.387,9.037 C 3.303,9.037 3.387,9.037 3.387,9.121 C 3.387,9.204 3.387,9.371 3.470,9.371 C 3.553,9.371 3.553,9.371 3.553,9.454 C 3.553,9.537 3.720,9.954 3.720,10.121 C 3.720,10.287 3.803,10.454 3.637,10.454 C 3.470,10.454 2.470,10.454 2.303,10.454 C 2.137,10.454 2.220,10.287 2.220,10.121 C 2.220,9.954 2.387,9.537 2.387,9.454 C 2.387,9.371 2.387,9.371 2.470,9.371 C 2.553,9.371 2.553,9.204 2.553,9.121 C 2.553,9.037 2.637,9.037 2.553,9.037 C 2.470,9.037 2.470,8.954 2.387,9.037 C 2.303,9.121 2.470,9.121 2.470,9.204 C 2.470,9.287 2.137,9.537 1.970,9.454 C 1.803,9.371 1.803,9.121 1.970,8.954 C 2.137,8.787 2.803,8.704 2.970,8.704 "/>
<path stroke="#000000" fill="none" stroke-width="0.001"  d="M 2.970,8.704 C 3.137,8.704 3.803,8.787 3.970,8.954 C 4.137,9.121 4.137,9.371 3.970,9.454 C 3.803,9.537 3.470,9.287 3.470,9.204 C 3.470,9.121 3.637,9.121 3.553,9.037 C 3.470,8.954 3.470,9.037 3.387,9.037 C 3.303,9.037 3.387,9.037 3.387,9.121 C 3.387,9.204 3.387,9.371 3.470,9.371 C 3.553,9.371 3.553,9.371 3.553,9.454 C 3.553,9.537 3.720,9.954 3.720,10.121 C 3.720,10.287 3.803,10.454 3.637,10.454 C 3.470,10.454 2.470,10.454 2.303,10.454 C 2.137,10.454 2.220,10.287 2.220,10.121 C 2.220,9.954 2.387,9.537 2.387,9.454 C 2.387,9.371 2.387,9.371 2.470,9.371 C 2.553,9.371 2.553,9.204 2.553,9.121 C 2.553,9.037 2.637,9.037 2.553,9.037 C 2.470,9.037 2.470,8.954 2.387,9.037 C 2.303,9.121 2.470,9.121 2.470,9.204 C 2.470,9.287 2.137,9.537 1.970,9.454 C 1.803,9.371 1.803,9.121 1.970,8.954 C 2.137,8.787 2.803,8.704 2.970,8.704 "/>
<ellipse cx="2.970" cy="9.471" rx="0.350" ry="0.350" fill="#777777" stroke="none"  /><ellipse cx="2.970" cy="9.471" rx="0.350" ry="0.350" fill="none" stroke="#000000"  stroke-width="0.001" /><ellipse cx="3.153" cy="9.287" rx="0.050" ry="0.050" fill="#CCCCCC" stroke="none"  /><ellipse cx="3.153" cy="9.287" rx="0.050" ry="0.050" fill="none" stroke="#000000"  stroke-width="0.001" /><ellipse cx="3.037" cy="9.221" rx="0.050" ry="0.050" fill="#CCCCCC" stroke="none"  /><ellipse cx="3.037" cy="9.221" rx="0.050" ry="0.050" fill="none" stroke="#000000"  stroke-width="0.001" /><ellipse cx="2.903" cy="9.221" rx="0.050" ry="0.050" fill="#CCCCCC" stroke="none"  /><ellipse cx="2.903" cy="9.221" rx="0.050" ry="0.050" fill="none" stroke="#000000"  stroke-width="0.001" /><ellipse cx="2.787" cy="9.287" rx="0.050" ry="0.050" fill="#CCCCCC" stroke="none"  /><ellipse cx="2.787" cy="9.287" rx="0.050" ry="0.050" fill="none" stroke="#000000"  stroke-width="0.001" /><ellipse cx="2.720" cy="9.404" rx="0.050" ry="0.050" fill="#CCCCCC" stroke="none"  /><ellipse cx="2.720" cy="9.404" rx="0.050" ry="0.050" fill="none" stroke="#000000"  stroke-width="0.001" /><ellipse cx="2.720" cy="9.537" rx="0.050" ry="0.050" fill="#CCCCCC" stroke="none"  /><ellipse cx="2.720" cy="9.537" rx="0.050" ry="0.050" fill="none" stroke="#000000"  stroke-width="0.001" /><ellipse cx="2.787" cy="9.654" rx="0.050" ry="0.050" fill="#CCCCCC" stroke="none"  /><ellipse cx="2.787" cy="9.654" rx="0.050" ry="0.050" fill="none" stroke="#000000"  stroke-width="0.001" /><ellipse cx="2.903" cy="9.721" rx="0.050" ry="0.050" fill="#CCCCCC" stroke="none"  /><ellipse cx="2.903" cy="9.721" rx="0.050" ry="0.050" fill="none" stroke="#000000"  stroke-width="0.001" /><ellipse cx="3.037" cy="9.721" rx="0.050" ry="0.050" fill="#CCCCCC" stroke="none"  /><ellipse cx="3.037" cy="9.721" rx="0.050" ry="0.050" fill="none" stroke="#000000"  stroke-width="0.001" /><ellipse cx="3.153" cy="9.654" rx="0.050" ry="0.050" fill="#CCCCCC" stroke="none"  /><ellipse cx="3.153" cy="9.654" rx="0.050" ry="0.050" fill="none" stroke="#000000"  stroke-width="0.001" /><ellipse cx="2.970" cy="9.471" rx="0.167" ry="0.167" fill="#AAAAAA" stroke="none"  /><ellipse cx="2.970" cy="9.471" rx="0.167" ry="0.167" fill="none" stroke="#000000"  stroke-width="0.001" /><path stroke="none" fill="#AAAAAA" stroke-width="0.001" d="M 3.220,9.554 C 3.253,9.571 3.270,9.554 3.320,9.554 C 3.370,9.554 3.353,9.537 3.353,9.571 C 3.337,9.604 3.353,9.604 3.303,9.604 C 3.253,9.604 3.253,9.621 3.187,9.571 C 3.120,9.537 3.170,9.521 3.220,9.554 "/>
<path stroke="#000000" fill="none" stroke-width="0.001"  d="M 3.220,9.554 C 3.253,9.571 3.270,9.554 3.320,9.554 C 3.370,9.554 3.353,9.537 3.353,9.571 C 3.337,9.604 3.353,9.604 3.303,9.604 C 3.253,9.604 3.253,9.621 3.187,9.571 C 3.120,9.537 3.170,9.521 3.220,9.554 "/>
<line x1="3.551" y1="9.469" x2="5.778" y2="9.461" stroke="#000000" stroke-width="0.050" />
<line x1="10.329" y1="9.461" x2="12.885" y2="9.469" stroke="#000000" stroke-width="0.050" />
</svg>